M48
;Layer_Color=9474304
;FILE_FORMAT=2:5
INCH,TZ
;TYPE=PLATED
T1F00S00C0.02362
%
T01
X334842Y290400
Y298382
Y306182
X356890Y301772
X397342Y290551
Y322082
Y329921
Y345391
X390256Y352658
X390650Y359744
X380137Y360844
X356594Y354528
X349606Y356398
X343012Y353445
X334744Y364469
X334842Y337795
Y329782
Y321982
X344980Y323524
X348130Y335433
X359449Y331594
X375886Y325394
M30
