G04 Layer_Color=16711935*
%FSLAX25Y25*%
%MOIN*%
G70*
G01*
G75*
%ADD42C,0.04737*%
%ADD43R,0.11036X0.05524*%
%ADD44R,0.06300X0.10800*%
D42*
X334842Y337795D02*
D03*
Y329782D02*
D03*
Y321982D02*
D03*
X397342Y290551D02*
D03*
X334842Y306182D02*
D03*
Y290400D02*
D03*
Y298382D02*
D03*
X397342Y345391D02*
D03*
X334744Y364469D02*
D03*
X356890Y301772D02*
D03*
X375886Y325394D02*
D03*
X397342Y329921D02*
D03*
Y322082D02*
D03*
X390650Y359744D02*
D03*
X380137Y360844D02*
D03*
X343012Y353445D02*
D03*
X356594Y354528D02*
D03*
X349606Y356398D02*
D03*
X390256Y352658D02*
D03*
X359449Y331594D02*
D03*
X344980Y323524D02*
D03*
X348130Y335433D02*
D03*
D43*
X335550Y345582D02*
D03*
Y337782D02*
D03*
Y329782D02*
D03*
Y321982D02*
D03*
Y314082D02*
D03*
X335450Y306182D02*
D03*
Y298382D02*
D03*
X396950Y290582D02*
D03*
Y306282D02*
D03*
Y314082D02*
D03*
Y322082D02*
D03*
Y329882D02*
D03*
Y337782D02*
D03*
Y345582D02*
D03*
X335450Y290482D02*
D03*
X396950Y298482D02*
D03*
D44*
X346550Y282382D02*
D03*
X354550D02*
D03*
X362350D02*
D03*
X370350D02*
D03*
X378150D02*
D03*
X385950D02*
D03*
M02*
