G04 Layer_Physical_Order=1*
G04 Layer_Color=255*
%FSLAX25Y25*%
%MOIN*%
G70*
G01*
G75*
G04:AMPARAMS|DCode=10|XSize=39.37mil|YSize=31.5mil|CornerRadius=7.87mil|HoleSize=0mil|Usage=FLASHONLY|Rotation=90.000|XOffset=0mil|YOffset=0mil|HoleType=Round|Shape=RoundedRectangle|*
%AMROUNDEDRECTD10*
21,1,0.03937,0.01575,0,0,90.0*
21,1,0.02362,0.03150,0,0,90.0*
1,1,0.01575,0.00787,0.01181*
1,1,0.01575,0.00787,-0.01181*
1,1,0.01575,-0.00787,-0.01181*
1,1,0.01575,-0.00787,0.01181*
%
%ADD10ROUNDEDRECTD10*%
G04:AMPARAMS|DCode=11|XSize=39.37mil|YSize=31.5mil|CornerRadius=7.87mil|HoleSize=0mil|Usage=FLASHONLY|Rotation=180.000|XOffset=0mil|YOffset=0mil|HoleType=Round|Shape=RoundedRectangle|*
%AMROUNDEDRECTD11*
21,1,0.03937,0.01575,0,0,180.0*
21,1,0.02362,0.03150,0,0,180.0*
1,1,0.01575,-0.01181,0.00787*
1,1,0.01575,0.01181,0.00787*
1,1,0.01575,0.01181,-0.00787*
1,1,0.01575,-0.01181,-0.00787*
%
%ADD11ROUNDEDRECTD11*%
G04:AMPARAMS|DCode=12|XSize=23.62mil|YSize=23.62mil|CornerRadius=5.91mil|HoleSize=0mil|Usage=FLASHONLY|Rotation=90.000|XOffset=0mil|YOffset=0mil|HoleType=Round|Shape=RoundedRectangle|*
%AMROUNDEDRECTD12*
21,1,0.02362,0.01181,0,0,90.0*
21,1,0.01181,0.02362,0,0,90.0*
1,1,0.01181,0.00591,0.00591*
1,1,0.01181,0.00591,-0.00591*
1,1,0.01181,-0.00591,-0.00591*
1,1,0.01181,-0.00591,0.00591*
%
%ADD12ROUNDEDRECTD12*%
%ADD13R,0.06299X0.06299*%
%ADD14R,0.02362X0.05512*%
%ADD15R,0.06000X0.06000*%
%ADD16P,0.06494X8X292.5*%
%ADD17R,0.03937X0.09842*%
%ADD18R,0.02362X0.04724*%
G04:AMPARAMS|DCode=19|XSize=47.24mil|YSize=70.87mil|CornerRadius=11.81mil|HoleSize=0mil|Usage=FLASHONLY|Rotation=0.000|XOffset=0mil|YOffset=0mil|HoleType=Round|Shape=RoundedRectangle|*
%AMROUNDEDRECTD19*
21,1,0.04724,0.04724,0,0,0.0*
21,1,0.02362,0.07087,0,0,0.0*
1,1,0.02362,0.01181,-0.02362*
1,1,0.02362,-0.01181,-0.02362*
1,1,0.02362,-0.01181,0.02362*
1,1,0.02362,0.01181,0.02362*
%
%ADD19ROUNDEDRECTD19*%
%ADD20O,0.02362X0.06102*%
%ADD21R,0.01968X0.03937*%
%ADD22C,0.01181*%
%ADD23C,0.01000*%
%ADD24C,0.03937*%
D10*
X360433Y290354D02*
D03*
X354331D02*
D03*
X374508Y331398D02*
D03*
X380610D02*
D03*
X348130Y329921D02*
D03*
X342028D02*
D03*
X387598Y325098D02*
D03*
X381496D02*
D03*
X349902Y306299D02*
D03*
X343799D02*
D03*
D11*
X346063Y296358D02*
D03*
Y290256D02*
D03*
X366831Y290059D02*
D03*
Y296161D02*
D03*
X353642Y331594D02*
D03*
Y325492D02*
D03*
X375787Y338287D02*
D03*
Y344390D02*
D03*
X367421Y331496D02*
D03*
Y325394D02*
D03*
X359646Y325197D02*
D03*
Y319094D02*
D03*
X356791Y306398D02*
D03*
Y312500D02*
D03*
X339370Y346555D02*
D03*
Y340453D02*
D03*
X346358Y340354D02*
D03*
Y346457D02*
D03*
X353346Y340354D02*
D03*
Y346457D02*
D03*
D12*
X377165Y296161D02*
D03*
X373228D02*
D03*
X377165Y289961D02*
D03*
X373228D02*
D03*
D13*
X374016Y359646D02*
D03*
X365158D02*
D03*
X396260Y351575D02*
D03*
Y359744D02*
D03*
D14*
X368898Y348130D02*
D03*
X365158D02*
D03*
X361417D02*
D03*
Y338287D02*
D03*
X368898D02*
D03*
D15*
X384941Y348130D02*
D03*
D16*
Y340256D02*
D03*
D17*
X398327Y375295D02*
D03*
X367126Y375295D02*
D03*
D18*
X374016Y367618D02*
D03*
X379921D02*
D03*
X391732D02*
D03*
D19*
X334350Y375000D02*
D03*
X360335D02*
D03*
D20*
X339469Y365059D02*
D03*
X343406D02*
D03*
X355217Y365079D02*
D03*
X351279Y365059D02*
D03*
X347342D02*
D03*
D21*
X366634Y306496D02*
D03*
Y315158D02*
D03*
X371555D02*
D03*
X376476D02*
D03*
X381398D02*
D03*
Y306496D02*
D03*
X376476D02*
D03*
X371555D02*
D03*
D22*
X368898Y338287D02*
X375787D01*
X334842Y337795D02*
X336713D01*
X339370Y340453D01*
X345031Y312500D02*
X356791D01*
X335550Y321982D02*
X345031Y312500D01*
X356693Y306299D02*
X356791Y306398D01*
X349902Y306299D02*
X356693D01*
X384941Y340256D02*
X385316D01*
X390533Y345472D01*
X397182D01*
X397264Y345391D01*
X334744Y364469D02*
X335335Y365059D01*
X339469D01*
X368898Y332972D02*
Y338287D01*
X367421Y331496D02*
X368898Y332972D01*
X367520Y331398D02*
X374508D01*
X367421Y331496D02*
X367520Y331398D01*
X335531Y290400D02*
X345919D01*
X346063Y290256D01*
X337473Y296358D02*
X346063D01*
X335450Y298382D02*
X337473Y296358D01*
X346063Y290256D02*
X354232D01*
X354331Y290354D01*
X360433D02*
X366535D01*
X366831Y290059D01*
X373130D01*
X373228Y289961D01*
X354331Y290354D02*
Y293799D01*
X356693Y296161D01*
X366831D01*
X373228D01*
Y287106D02*
Y289961D01*
Y287106D02*
X375689Y284646D01*
X391339D01*
X397244Y290551D01*
X377165Y289961D02*
Y296161D01*
X356791Y301870D02*
X356890Y301772D01*
X356791Y301870D02*
Y306398D01*
X375886Y325394D02*
X381201D01*
X381496Y325098D01*
X367421Y325394D02*
X375886D01*
X380610Y331398D02*
X395866D01*
X397342Y329921D01*
X356791Y306398D02*
X366535D01*
X366634Y306496D01*
X371555Y312992D02*
Y315158D01*
X369390Y310827D02*
X371555Y312992D01*
X366634Y306496D02*
X371555D01*
X377165Y296161D02*
X381398Y300394D01*
Y306496D01*
X373228Y296161D02*
Y297146D01*
X376476Y300394D01*
Y306496D01*
X364075Y319094D02*
X366634Y316535D01*
Y315158D02*
Y316535D01*
X375787Y344390D02*
X379528Y348130D01*
X384941D01*
X374016Y359646D02*
Y367618D01*
X374016Y359646D02*
X374016Y359646D01*
X365158Y348130D02*
Y359646D01*
X339370Y340453D02*
X346260D01*
X346358Y340354D01*
Y346457D02*
X353346D01*
Y340354D02*
X356594D01*
X358957Y348130D02*
X361417D01*
X356594Y340354D02*
X357972Y341732D01*
Y347146D01*
X358957Y348130D01*
X361417Y344094D02*
Y348130D01*
Y344094D02*
X362500Y343012D01*
X367717D01*
X368898Y344193D01*
Y348130D01*
X373622D01*
X391732Y366240D01*
Y367618D01*
X390650Y359744D02*
X396260D01*
X379921Y361060D02*
X380137Y360844D01*
Y367403D01*
X379921Y367618D02*
X380137Y367403D01*
X355217Y360039D02*
Y365079D01*
X339370Y359171D02*
X343406Y363206D01*
Y365059D01*
X339370Y346555D02*
Y359171D01*
X343012Y353445D02*
Y358169D01*
X347342Y362500D01*
Y365059D01*
X355217Y360039D02*
X356594Y358661D01*
Y354528D02*
Y358661D01*
X353346Y346457D02*
X356594Y349705D01*
Y354528D01*
X351279Y358071D02*
Y365059D01*
X349606Y356398D02*
X351279Y358071D01*
X388583Y350984D02*
X390256Y352658D01*
X387795Y350984D02*
X388583D01*
X384941Y348130D02*
X387795Y350984D01*
X391339Y351575D02*
X396260D01*
X390256Y352658D02*
X391339Y351575D01*
X357579Y359646D02*
X365158D01*
X356594Y358661D02*
X357579Y359646D01*
X359646Y319094D02*
X364075D01*
X359646Y325197D02*
Y331102D01*
X359154Y331594D02*
X359252Y331496D01*
X387598Y325098D02*
X390615Y322082D01*
X396950D01*
X335550Y327147D02*
X343602Y319094D01*
X359646D01*
X353642Y331594D02*
X359154D01*
X359449D01*
X356791Y312500D02*
X357874D01*
X359547Y310827D01*
X369390D01*
X344980Y323524D02*
Y326969D01*
X342028Y329921D02*
X344980Y326969D01*
X352559Y325492D02*
X353642D01*
X348130Y329921D02*
X352559Y325492D01*
X348130Y335433D02*
X349475D01*
X348130Y329921D02*
Y335433D01*
X335550Y327147D02*
Y329782D01*
X359252Y331496D02*
X359646Y331102D01*
X359252Y331496D02*
X367421D01*
D23*
X343682Y306182D02*
X343799Y306299D01*
X335450Y306182D02*
X343682D01*
D24*
X334842Y337795D02*
D03*
Y329782D02*
D03*
Y321982D02*
D03*
X397342Y290551D02*
D03*
X334842Y306182D02*
D03*
Y290400D02*
D03*
Y298382D02*
D03*
X397342Y345391D02*
D03*
X334744Y364469D02*
D03*
X356890Y301772D02*
D03*
X375886Y325394D02*
D03*
X397342Y329921D02*
D03*
Y322082D02*
D03*
X390650Y359744D02*
D03*
X380137Y360844D02*
D03*
X343012Y353445D02*
D03*
X356594Y354528D02*
D03*
X349606Y356398D02*
D03*
X390256Y352658D02*
D03*
X359449Y331594D02*
D03*
X344980Y323524D02*
D03*
X348130Y335433D02*
D03*
M02*
