G04 Layer_Physical_Order=1*
G04 Layer_Color=255*
%FSLAX25Y25*%
%MOIN*%
G70*
G01*
G75*
G04:AMPARAMS|DCode=10|XSize=39.37mil|YSize=31.5mil|CornerRadius=7.87mil|HoleSize=0mil|Usage=FLASHONLY|Rotation=90.000|XOffset=0mil|YOffset=0mil|HoleType=Round|Shape=RoundedRectangle|*
%AMROUNDEDRECTD10*
21,1,0.03937,0.01575,0,0,90.0*
21,1,0.02362,0.03150,0,0,90.0*
1,1,0.01575,0.00787,0.01181*
1,1,0.01575,0.00787,-0.01181*
1,1,0.01575,-0.00787,-0.01181*
1,1,0.01575,-0.00787,0.01181*
%
%ADD10ROUNDEDRECTD10*%
G04:AMPARAMS|DCode=11|XSize=39.37mil|YSize=31.5mil|CornerRadius=7.87mil|HoleSize=0mil|Usage=FLASHONLY|Rotation=180.000|XOffset=0mil|YOffset=0mil|HoleType=Round|Shape=RoundedRectangle|*
%AMROUNDEDRECTD11*
21,1,0.03937,0.01575,0,0,180.0*
21,1,0.02362,0.03150,0,0,180.0*
1,1,0.01575,-0.01181,0.00787*
1,1,0.01575,0.01181,0.00787*
1,1,0.01575,0.01181,-0.00787*
1,1,0.01575,-0.01181,-0.00787*
%
%ADD11ROUNDEDRECTD11*%
G04:AMPARAMS|DCode=12|XSize=35.43mil|YSize=35.43mil|CornerRadius=8.86mil|HoleSize=0mil|Usage=FLASHONLY|Rotation=180.000|XOffset=0mil|YOffset=0mil|HoleType=Round|Shape=RoundedRectangle|*
%AMROUNDEDRECTD12*
21,1,0.03543,0.01772,0,0,180.0*
21,1,0.01772,0.03543,0,0,180.0*
1,1,0.01772,-0.00886,0.00886*
1,1,0.01772,0.00886,0.00886*
1,1,0.01772,0.00886,-0.00886*
1,1,0.01772,-0.00886,-0.00886*
%
%ADD12ROUNDEDRECTD12*%
%ADD13R,0.05905X0.07874*%
%ADD14R,0.06299X0.06299*%
%ADD15R,0.06299X0.06299*%
G04:AMPARAMS|DCode=16|XSize=24.8mil|YSize=32.68mil|CornerRadius=6.2mil|HoleSize=0mil|Usage=FLASHONLY|Rotation=0.000|XOffset=0mil|YOffset=0mil|HoleType=Round|Shape=RoundedRectangle|*
%AMROUNDEDRECTD16*
21,1,0.02480,0.02028,0,0,0.0*
21,1,0.01240,0.03268,0,0,0.0*
1,1,0.01240,0.00620,-0.01014*
1,1,0.01240,-0.00620,-0.01014*
1,1,0.01240,-0.00620,0.01014*
1,1,0.01240,0.00620,0.01014*
%
%ADD16ROUNDEDRECTD16*%
%ADD17R,0.02362X0.05512*%
%ADD18C,0.01968*%
%ADD19C,0.02953*%
%ADD20C,0.01181*%
D10*
X567618Y220276D02*
D03*
X573721D02*
D03*
D11*
X560236Y204134D02*
D03*
Y210236D02*
D03*
X595768Y202756D02*
D03*
Y196653D02*
D03*
D12*
X595866Y211122D02*
D03*
X588386D02*
D03*
X592126Y219783D02*
D03*
D13*
X605413Y218110D02*
D03*
Y159055D02*
D03*
D14*
X556102Y187008D02*
D03*
D15*
X565945D02*
D03*
X615158Y216535D02*
D03*
Y226378D02*
D03*
D16*
X595709Y188287D02*
D03*
X586969D02*
D03*
D17*
X569882Y211319D02*
D03*
X573622D02*
D03*
X577362D02*
D03*
Y201476D02*
D03*
X569882D02*
D03*
D18*
X588484Y227461D02*
X571260D01*
X592126Y223819D02*
X588484Y227461D01*
X592126Y219783D02*
Y223819D01*
X606988Y216535D02*
X605413Y218110D01*
X615158Y216535D02*
X606988D01*
X567224Y188287D02*
X565945Y187008D01*
X586969Y188287D02*
X567224D01*
X556102Y187008D02*
Y200000D01*
X560236Y204134D02*
X556102Y200000D01*
X605413Y159055D02*
X595709Y168760D01*
X593799Y218110D02*
X592126Y219783D01*
X605413Y218110D02*
X593799D01*
X595709Y168760D02*
Y188287D01*
X562894Y201476D02*
X560236Y204134D01*
X569882Y201476D02*
X562894D01*
X595768Y196653D02*
X595709Y196595D01*
Y188287D02*
Y196595D01*
X595866Y202854D02*
X595768Y202756D01*
X595866Y202854D02*
Y211122D01*
X577559D02*
X577362Y211319D01*
X588386Y211122D02*
X577559D01*
X567618Y213583D02*
Y220276D01*
X569882Y211319D02*
X567618Y213583D01*
X573721Y220276D02*
X573622Y220177D01*
Y211319D02*
Y220177D01*
X571260Y227461D02*
X567618Y223819D01*
Y220276D02*
Y223819D01*
D19*
X560236Y210236D02*
Y227559D01*
X565945Y233268D02*
X560236Y227559D01*
X608268Y233268D02*
X565945D01*
X615158Y226378D02*
X608268Y233268D01*
D20*
X563878Y206594D02*
X560236Y210236D01*
X572047Y206594D02*
X563878D01*
X573622Y208169D02*
X572047Y206594D01*
X573622Y208169D02*
Y211319D01*
M02*
