G04 Layer_Color=255*
%FSLAX25Y25*%
%MOIN*%
G70*
G01*
G75*
G04:AMPARAMS|DCode=10|XSize=39.37mil|YSize=31.5mil|CornerRadius=7.87mil|HoleSize=0mil|Usage=FLASHONLY|Rotation=90.000|XOffset=0mil|YOffset=0mil|HoleType=Round|Shape=RoundedRectangle|*
%AMROUNDEDRECTD10*
21,1,0.03937,0.01575,0,0,90.0*
21,1,0.02362,0.03150,0,0,90.0*
1,1,0.01575,0.00787,0.01181*
1,1,0.01575,0.00787,-0.01181*
1,1,0.01575,-0.00787,-0.01181*
1,1,0.01575,-0.00787,0.01181*
%
%ADD10ROUNDEDRECTD10*%
G04:AMPARAMS|DCode=11|XSize=39.37mil|YSize=31.5mil|CornerRadius=7.87mil|HoleSize=0mil|Usage=FLASHONLY|Rotation=180.000|XOffset=0mil|YOffset=0mil|HoleType=Round|Shape=RoundedRectangle|*
%AMROUNDEDRECTD11*
21,1,0.03937,0.01575,0,0,180.0*
21,1,0.02362,0.03150,0,0,180.0*
1,1,0.01575,-0.01181,0.00787*
1,1,0.01575,0.01181,0.00787*
1,1,0.01575,0.01181,-0.00787*
1,1,0.01575,-0.01181,-0.00787*
%
%ADD11ROUNDEDRECTD11*%
%ADD12R,0.04724X0.03937*%
G04:AMPARAMS|DCode=13|XSize=62.99mil|YSize=47.24mil|CornerRadius=0mil|HoleSize=0mil|Usage=FLASHONLY|Rotation=90.000|XOffset=0mil|YOffset=0mil|HoleType=Round|Shape=Octagon|*
%AMOCTAGOND13*
4,1,8,0.01181,0.03150,-0.01181,0.03150,-0.02362,0.01968,-0.02362,-0.01968,-0.01181,-0.03150,0.01181,-0.03150,0.02362,-0.01968,0.02362,0.01968,0.01181,0.03150,0.0*
%
%ADD13OCTAGOND13*%

%ADD14R,0.02756X0.02362*%
%ADD15R,0.02756X0.03150*%
%ADD16R,0.01968X0.03937*%
G04:AMPARAMS|DCode=17|XSize=23.62mil|YSize=23.62mil|CornerRadius=5.91mil|HoleSize=0mil|Usage=FLASHONLY|Rotation=270.000|XOffset=0mil|YOffset=0mil|HoleType=Round|Shape=RoundedRectangle|*
%AMROUNDEDRECTD17*
21,1,0.02362,0.01181,0,0,270.0*
21,1,0.01181,0.02362,0,0,270.0*
1,1,0.01181,-0.00591,-0.00591*
1,1,0.01181,-0.00591,0.00591*
1,1,0.01181,0.00591,0.00591*
1,1,0.01181,0.00591,-0.00591*
%
%ADD17ROUNDEDRECTD17*%
%ADD18R,0.07874X0.03937*%
%ADD19R,0.03937X0.07874*%
G04:AMPARAMS|DCode=20|XSize=47.24mil|YSize=70.87mil|CornerRadius=11.81mil|HoleSize=0mil|Usage=FLASHONLY|Rotation=0.000|XOffset=0mil|YOffset=0mil|HoleType=Round|Shape=RoundedRectangle|*
%AMROUNDEDRECTD20*
21,1,0.04724,0.04724,0,0,0.0*
21,1,0.02362,0.07087,0,0,0.0*
1,1,0.02362,0.01181,-0.02362*
1,1,0.02362,-0.01181,-0.02362*
1,1,0.02362,-0.01181,0.02362*
1,1,0.02362,0.01181,0.02362*
%
%ADD20ROUNDEDRECTD20*%
%ADD21O,0.02362X0.06102*%
D10*
X525295Y263681D02*
D03*
X519193D02*
D03*
X525197Y271555D02*
D03*
X519095D02*
D03*
X519193Y255807D02*
D03*
X525295D02*
D03*
X525295Y247933D02*
D03*
X531398D02*
D03*
X558661Y260236D02*
D03*
X552559D02*
D03*
X541535Y308465D02*
D03*
X547638D02*
D03*
X541535Y315748D02*
D03*
X547638D02*
D03*
D11*
X514272Y307776D02*
D03*
Y301673D02*
D03*
X520177Y298425D02*
D03*
Y304528D02*
D03*
X531299Y265453D02*
D03*
Y271555D02*
D03*
X577067Y274114D02*
D03*
Y268012D02*
D03*
X571949Y293602D02*
D03*
Y287500D02*
D03*
X571752Y309154D02*
D03*
Y303051D02*
D03*
X520079Y293209D02*
D03*
Y287106D02*
D03*
X540453Y273130D02*
D03*
Y279232D02*
D03*
D12*
X562894Y296752D02*
D03*
D13*
Y303051D02*
D03*
D14*
X541831Y301969D02*
D03*
X547736D02*
D03*
X553642D02*
D03*
Y290158D02*
D03*
X541831D02*
D03*
X547736Y290158D02*
D03*
D15*
X541831Y296063D02*
D03*
D16*
X547736Y275394D02*
D03*
Y284055D02*
D03*
X552658D02*
D03*
X557579D02*
D03*
X562500D02*
D03*
Y275394D02*
D03*
X557579D02*
D03*
X552658D02*
D03*
D17*
X561713Y266437D02*
D03*
X565650D02*
D03*
X552559D02*
D03*
X556496D02*
D03*
D18*
X565551Y332776D02*
D03*
D19*
X576772D02*
D03*
D20*
X512795Y333169D02*
D03*
X538779D02*
D03*
D21*
X517913Y323228D02*
D03*
X521850D02*
D03*
X533661Y323248D02*
D03*
X529724Y323228D02*
D03*
X525787D02*
D03*
M02*
