G04 Layer_Color=65535*
%FSLAX25Y25*%
%MOIN*%
G70*
G01*
G75*
%ADD28C,0.00984*%
%ADD29C,0.01000*%
%ADD30C,0.00787*%
%ADD31C,0.00394*%
%ADD32C,0.00400*%
%ADD33C,0.00500*%
D28*
X539468Y304921D02*
X538730Y305347D01*
Y304495D01*
X539468Y304921D01*
D29*
X545138Y272146D02*
X544429D01*
X545138D01*
D30*
X521850Y261713D02*
X522638D01*
X521850Y265650D02*
X522638D01*
X516240Y304331D02*
Y305118D01*
X512303Y304331D02*
Y305118D01*
X518209Y301083D02*
Y301870D01*
X522146Y301083D02*
Y301870D01*
X521752Y269587D02*
X522539D01*
X521752Y273524D02*
X522539D01*
X521850Y257776D02*
X522638D01*
X521850Y253839D02*
X522638D01*
X527953Y249902D02*
X528740D01*
X527953Y245965D02*
X528740D01*
X529331Y268110D02*
Y268898D01*
X533268Y268110D02*
Y268898D01*
X579035Y270669D02*
Y271457D01*
X575098Y270669D02*
Y271457D01*
X562008Y294094D02*
X566043D01*
Y306890D01*
X559744D02*
X566043D01*
X559744Y294094D02*
Y306890D01*
Y294094D02*
X562008D01*
X555217Y258268D02*
X556004D01*
X555217Y262205D02*
X556004D01*
X544193Y310433D02*
X544980D01*
X544193Y306496D02*
X544980D01*
X544193Y317717D02*
X544980D01*
X544193Y313779D02*
X544980D01*
X573917Y290158D02*
Y290945D01*
X569980Y290158D02*
Y290945D01*
X573721Y305709D02*
Y306496D01*
X569783Y305709D02*
Y306496D01*
X559744Y264469D02*
X567618D01*
Y268406D01*
X559744Y264469D02*
Y268406D01*
X567618D01*
X550591Y264469D02*
X558465D01*
Y268406D01*
X550591Y264469D02*
Y268406D01*
X558465D01*
X522047Y289764D02*
Y290551D01*
X518110Y289764D02*
Y290551D01*
X538484Y275787D02*
Y276575D01*
X542421Y275787D02*
Y276575D01*
X516732Y335925D02*
X534842D01*
X536417Y325000D02*
X539567D01*
Y328051D01*
X512008Y325000D02*
X515158D01*
X512008D02*
Y328051D01*
D31*
X545177Y273819D02*
X546260D01*
X545177D02*
Y274803D01*
Y285630D02*
X546161D01*
X545177Y284646D02*
Y285630D01*
X563976Y273819D02*
X564862D01*
Y274803D01*
Y284646D02*
Y285630D01*
X563976D02*
X564862D01*
X561358Y311629D02*
X560965Y312023D01*
X560178D01*
X559784Y311629D01*
Y311236D01*
X560178Y310842D01*
X560965D01*
X561358Y310449D01*
Y310055D01*
X560965Y309661D01*
X560178D01*
X559784Y310055D01*
X562146Y312023D02*
Y309661D01*
X563326D01*
X563720Y310055D01*
Y310449D01*
X563326Y310842D01*
X562146D01*
X563326D01*
X563720Y311236D01*
Y311629D01*
X563326Y312023D01*
X562146D01*
X564507Y309661D02*
X565294D01*
X564901D01*
Y312023D01*
X564507Y311629D01*
D32*
X536607Y250636D02*
X536940Y250969D01*
Y251635D01*
X536607Y251969D01*
X535274D01*
X534941Y251635D01*
Y250969D01*
X535274Y250636D01*
X534941Y249969D02*
Y249303D01*
Y249636D01*
X536940D01*
X536607Y249969D01*
X555368Y255997D02*
X555035Y256330D01*
X554369D01*
X554035Y255997D01*
Y254664D01*
X554369Y254331D01*
X555035D01*
X555368Y254664D01*
X557368Y254331D02*
X556035D01*
X557368Y255664D01*
Y255997D01*
X557034Y256330D01*
X556368D01*
X556035Y255997D01*
X553202Y309132D02*
X553535Y309465D01*
Y310131D01*
X553202Y310465D01*
X551869D01*
X551535Y310131D01*
Y309465D01*
X551869Y309132D01*
X553202Y308465D02*
X553535Y308132D01*
Y307466D01*
X553202Y307132D01*
X552868D01*
X552535Y307466D01*
Y307799D01*
Y307466D01*
X552202Y307132D01*
X551869D01*
X551535Y307466D01*
Y308132D01*
X551869Y308465D01*
X553253Y316915D02*
X553586Y317248D01*
Y317915D01*
X553253Y318248D01*
X551920D01*
X551587Y317915D01*
Y317248D01*
X551920Y316915D01*
X551587Y315249D02*
X553586D01*
X552586Y316249D01*
Y314916D01*
X558003Y294882D02*
X556004D01*
Y293882D01*
X556337Y293549D01*
X557670D01*
X558003Y293882D01*
Y294882D01*
Y292882D02*
X556004D01*
Y291883D01*
X556337Y291550D01*
X557670D01*
X558003Y291883D01*
Y292882D01*
X556004Y289550D02*
Y290883D01*
X557337Y289550D01*
X557670D01*
X558003Y289883D01*
Y290550D01*
X557670Y290883D01*
X567799Y282700D02*
X565800D01*
Y281700D01*
X566133Y281367D01*
X567466D01*
X567799Y281700D01*
Y282700D01*
Y280701D02*
X565800D01*
Y279701D01*
X566133Y279368D01*
X567466D01*
X567799Y279701D01*
Y280701D01*
X567466Y278701D02*
X567799Y278368D01*
Y277702D01*
X567466Y277368D01*
X567133D01*
X566800Y277702D01*
Y278035D01*
Y277702D01*
X566466Y277368D01*
X566133D01*
X565800Y277702D01*
Y278368D01*
X566133Y278701D01*
X578642Y265059D02*
Y263060D01*
X577642D01*
X577309Y263393D01*
Y264059D01*
X577642Y264393D01*
X578642D01*
X577975D02*
X577309Y265059D01*
X576642Y263393D02*
X576309Y263060D01*
X575643D01*
X575310Y263393D01*
Y263726D01*
X575643Y264059D01*
X575976D01*
X575643D01*
X575310Y264393D01*
Y264726D01*
X575643Y265059D01*
X576309D01*
X576642Y264726D01*
X571260Y264665D02*
X569261D01*
Y265665D01*
X569594Y265998D01*
X570260D01*
X570593Y265665D01*
Y264665D01*
Y265332D02*
X571260Y265998D01*
Y267664D02*
X569261D01*
X570260Y266665D01*
Y267998D01*
X548917Y264764D02*
X546918D01*
Y265763D01*
X547251Y266097D01*
X547918D01*
X548251Y265763D01*
Y264764D01*
Y265430D02*
X548917Y266097D01*
X546918Y268096D02*
Y266763D01*
X547918D01*
X547584Y267430D01*
Y267763D01*
X547918Y268096D01*
X548584D01*
X548917Y267763D01*
Y267096D01*
X548584Y266763D01*
X523425Y288779D02*
X525424D01*
Y287780D01*
X525091Y287447D01*
X524425D01*
X524092Y287780D01*
Y288779D01*
Y288113D02*
X523425Y287447D01*
X525424Y285447D02*
X525091Y286114D01*
X524425Y286780D01*
X523758D01*
X523425Y286447D01*
Y285781D01*
X523758Y285447D01*
X524092D01*
X524425Y285781D01*
Y286780D01*
X540100Y270000D02*
X542099D01*
Y269000D01*
X541766Y268667D01*
X541100D01*
X540766Y269000D01*
Y270000D01*
Y269334D02*
X540100Y268667D01*
X542099Y268001D02*
Y266668D01*
X541766D01*
X540433Y268001D01*
X540100D01*
X528346Y262598D02*
X530346D01*
Y261599D01*
X530013Y261265D01*
X529346D01*
X529013Y261599D01*
Y262598D01*
Y261932D02*
X528346Y261265D01*
X530013Y260599D02*
X530346Y260266D01*
Y259599D01*
X530013Y259266D01*
X529679D01*
X529346Y259599D01*
X529013Y259266D01*
X528680D01*
X528346Y259599D01*
Y260266D01*
X528680Y260599D01*
X529013D01*
X529346Y260266D01*
X529679Y260599D01*
X530013D01*
X529346Y260266D02*
Y259599D01*
X523746Y274826D02*
Y276825D01*
X524746D01*
X525079Y276492D01*
Y275826D01*
X524746Y275493D01*
X523746D01*
X524413D02*
X525079Y274826D01*
X525746Y275159D02*
X526079Y274826D01*
X526745D01*
X527079Y275159D01*
Y276492D01*
X526745Y276825D01*
X526079D01*
X525746Y276492D01*
Y276159D01*
X526079Y275826D01*
X527079D01*
X528346Y257283D02*
X530346D01*
Y256284D01*
X530013Y255951D01*
X529346D01*
X529013Y256284D01*
Y257283D01*
Y256617D02*
X528346Y255951D01*
Y255284D02*
Y254618D01*
Y254951D01*
X530346D01*
X530013Y255284D01*
Y253618D02*
X530346Y253285D01*
Y252618D01*
X530013Y252285D01*
X528680D01*
X528346Y252618D01*
Y253285D01*
X528680Y253618D01*
X530013D01*
X534800Y265000D02*
X536799D01*
Y264000D01*
X536466Y263667D01*
X535800D01*
X535466Y264000D01*
Y265000D01*
Y264334D02*
X534800Y263667D01*
Y263001D02*
Y262334D01*
Y262667D01*
X536799D01*
X536466Y263001D01*
X534800Y261334D02*
Y260668D01*
Y261001D01*
X536799D01*
X536466Y261334D01*
X523819Y302461D02*
X525818D01*
Y301461D01*
X525485Y301128D01*
X524819D01*
X524485Y301461D01*
Y302461D01*
Y301794D02*
X523819Y301128D01*
Y300461D02*
Y299795D01*
Y300128D01*
X525818D01*
X525485Y300461D01*
X523819Y297462D02*
Y298795D01*
X525152Y297462D01*
X525485D01*
X525818Y297796D01*
Y298462D01*
X525485Y298795D01*
X511811Y311024D02*
Y313023D01*
X512811D01*
X513144Y312690D01*
Y312023D01*
X512811Y311690D01*
X511811D01*
X512477D02*
X513144Y311024D01*
X513810D02*
X514477D01*
X514144D01*
Y313023D01*
X513810Y312690D01*
X515477D02*
X515810Y313023D01*
X516476D01*
X516809Y312690D01*
Y312356D01*
X516476Y312023D01*
X516143D01*
X516476D01*
X516809Y311690D01*
Y311357D01*
X516476Y311024D01*
X515810D01*
X515477Y311357D01*
X574637Y327362D02*
X572638Y326029D01*
X574637D02*
X572638Y327362D01*
Y325363D02*
Y324696D01*
Y325030D01*
X574637D01*
X574304Y325363D01*
X562826Y328248D02*
X560827Y326915D01*
X562826D02*
X560827Y328248D01*
Y324916D02*
Y326249D01*
X562160Y324916D01*
X562493D01*
X562826Y325249D01*
Y325916D01*
X562493Y326249D01*
X545208Y332972D02*
X543209Y331640D01*
X545208D02*
X543209Y332972D01*
Y330973D02*
X545208D01*
Y329973D01*
X544875Y329640D01*
X544208D01*
X543875Y329973D01*
Y330973D01*
X543209Y328974D02*
Y328307D01*
Y328641D01*
X545208D01*
X544875Y328974D01*
D33*
X570280Y296724D02*
Y299224D01*
X571529D01*
X571946Y298807D01*
Y297974D01*
X571529Y297557D01*
X570280D01*
X571113D02*
X571946Y296724D01*
X572779D02*
X573612D01*
X573195D01*
Y299224D01*
X572779Y298807D01*
X569996Y312669D02*
Y315168D01*
X571246D01*
X571662Y314752D01*
Y313919D01*
X571246Y313502D01*
X569996D01*
X570829D02*
X571662Y312669D01*
X574161D02*
X572495D01*
X574161Y314335D01*
Y314752D01*
X573745Y315168D01*
X572912D01*
X572495Y314752D01*
M02*
