G04 Layer_Physical_Order=1*
G04 Layer_Color=255*
%FSLAX25Y25*%
%MOIN*%
G70*
G01*
G75*
%ADD10C,0.03937*%
%ADD11O,0.02362X0.06102*%
G04:AMPARAMS|DCode=12|XSize=47.24mil|YSize=70.87mil|CornerRadius=11.81mil|HoleSize=0mil|Usage=FLASHONLY|Rotation=0.000|XOffset=0mil|YOffset=0mil|HoleType=Round|Shape=RoundedRectangle|*
%AMROUNDEDRECTD12*
21,1,0.04724,0.04724,0,0,0.0*
21,1,0.02362,0.07087,0,0,0.0*
1,1,0.02362,0.01181,-0.02362*
1,1,0.02362,-0.01181,-0.02362*
1,1,0.02362,-0.01181,0.02362*
1,1,0.02362,0.01181,0.02362*
%
%ADD12ROUNDEDRECTD12*%
G04:AMPARAMS|DCode=13|XSize=39.37mil|YSize=31.5mil|CornerRadius=7.87mil|HoleSize=0mil|Usage=FLASHONLY|Rotation=0.000|XOffset=0mil|YOffset=0mil|HoleType=Round|Shape=RoundedRectangle|*
%AMROUNDEDRECTD13*
21,1,0.03937,0.01575,0,0,0.0*
21,1,0.02362,0.03150,0,0,0.0*
1,1,0.01575,0.01181,-0.00787*
1,1,0.01575,-0.01181,-0.00787*
1,1,0.01575,-0.01181,0.00787*
1,1,0.01575,0.01181,0.00787*
%
%ADD13ROUNDEDRECTD13*%
G04:AMPARAMS|DCode=14|XSize=39.37mil|YSize=31.5mil|CornerRadius=7.87mil|HoleSize=0mil|Usage=FLASHONLY|Rotation=270.000|XOffset=0mil|YOffset=0mil|HoleType=Round|Shape=RoundedRectangle|*
%AMROUNDEDRECTD14*
21,1,0.03937,0.01575,0,0,270.0*
21,1,0.02362,0.03150,0,0,270.0*
1,1,0.01575,-0.00787,-0.01181*
1,1,0.01575,-0.00787,0.01181*
1,1,0.01575,0.00787,0.01181*
1,1,0.01575,0.00787,-0.01181*
%
%ADD14ROUNDEDRECTD14*%
%ADD15C,0.01000*%
%ADD16C,0.06299*%
%ADD17C,0.05000*%
G36*
X517717Y224410D02*
X444882D01*
Y336614D01*
X449616D01*
X449867Y336114D01*
X449520Y335595D01*
X449351Y334744D01*
Y330020D01*
X449520Y329169D01*
X450002Y328447D01*
X450724Y327965D01*
X451575Y327796D01*
X453371D01*
X453578Y327296D01*
X449903Y323621D01*
X449571Y323125D01*
X449455Y322539D01*
Y306206D01*
X449219Y306108D01*
X448488Y305547D01*
X447927Y304816D01*
X447574Y303965D01*
X447454Y303051D01*
X447574Y302137D01*
X447927Y301286D01*
X448488Y300555D01*
X449219Y299994D01*
X450071Y299641D01*
X450984Y299521D01*
X451898Y299641D01*
X452749Y299994D01*
X453480Y300555D01*
X454041Y301286D01*
X454394Y302137D01*
X454515Y303051D01*
X454394Y303965D01*
X454041Y304816D01*
X453480Y305547D01*
X452749Y306108D01*
X452514Y306206D01*
Y321906D01*
X455195Y324588D01*
X455656Y324341D01*
X455650Y324311D01*
Y320571D01*
X455820Y319720D01*
X456301Y318998D01*
X457023Y318516D01*
X457874Y318347D01*
X458725Y318516D01*
X459446Y318998D01*
X459463Y319024D01*
X460032Y319060D01*
X460282Y318795D01*
Y309824D01*
X459933Y309755D01*
X459341Y309360D01*
X458946Y308768D01*
X458808Y308071D01*
Y306496D01*
X458946Y305799D01*
X459341Y305207D01*
X459933Y304812D01*
X460630Y304674D01*
X462992D01*
X463690Y304812D01*
X464281Y305207D01*
X464676Y305799D01*
X464815Y306496D01*
Y308071D01*
X464676Y308768D01*
X464281Y309360D01*
X463690Y309755D01*
X463340Y309824D01*
Y318970D01*
X463383Y318998D01*
X463529Y319217D01*
X464030D01*
X464176Y318998D01*
X464897Y318516D01*
X465748Y318347D01*
X466599Y318516D01*
X467320Y318998D01*
X467337Y319024D01*
X467906Y319060D01*
X468156Y318795D01*
Y317344D01*
X468102Y317333D01*
X467511Y316938D01*
X467115Y316347D01*
X466977Y315650D01*
Y313287D01*
X467115Y312590D01*
X467511Y311999D01*
X468057Y311633D01*
Y310906D01*
X467511Y310541D01*
X467115Y309949D01*
X466977Y309252D01*
Y306890D01*
X467115Y306192D01*
X467511Y305601D01*
X468102Y305206D01*
X468799Y305067D01*
X470374D01*
X471071Y305206D01*
X471663Y305601D01*
X472058Y306192D01*
X472196Y306890D01*
Y309252D01*
X472058Y309949D01*
X471663Y310541D01*
X471116Y310906D01*
Y311633D01*
X471663Y311999D01*
X472058Y312590D01*
X472196Y313287D01*
Y315650D01*
X472058Y316347D01*
X471663Y316938D01*
X471214Y317238D01*
Y318970D01*
X471257Y318998D01*
X471410Y319227D01*
X471910D01*
X472050Y319018D01*
X472771Y318536D01*
X473622Y318367D01*
X474473Y318536D01*
X475195Y319018D01*
X475677Y319740D01*
X475846Y320590D01*
Y320931D01*
X487520D01*
X487933Y321013D01*
X488328Y320776D01*
X490937D01*
Y322885D01*
X490814D01*
X490607Y323385D01*
X490990Y323768D01*
X492618D01*
X493316Y323907D01*
X493907Y324302D01*
X494302Y324893D01*
X494441Y325590D01*
Y327165D01*
X494432Y327210D01*
X496007Y328786D01*
X507634D01*
X509100Y327319D01*
Y316283D01*
X504778Y311960D01*
X503150D01*
X502452Y311822D01*
X501861Y311426D01*
X501466Y310835D01*
X501327Y310138D01*
Y308563D01*
X501466Y307866D01*
X501861Y307274D01*
X502452Y306879D01*
X503150Y306741D01*
X505512D01*
X506209Y306879D01*
X506801Y307274D01*
X507196Y307866D01*
X507334Y308563D01*
Y310138D01*
X507325Y310182D01*
X511711Y314568D01*
X512043Y315064D01*
X512159Y315650D01*
Y327953D01*
X512043Y328538D01*
X511711Y329034D01*
X509349Y331396D01*
X508853Y331728D01*
X508268Y331844D01*
X495374D01*
X494789Y331728D01*
X494293Y331396D01*
X491884Y328988D01*
X490990D01*
X489802Y330176D01*
X490065Y330518D01*
X490418Y331370D01*
X490538Y332283D01*
X490418Y333197D01*
X490065Y334049D01*
X489504Y334780D01*
X488773Y335341D01*
X487922Y335693D01*
X487008Y335814D01*
X486094Y335693D01*
X485243Y335341D01*
X484512Y334780D01*
X483951Y334049D01*
X483598Y333197D01*
X483478Y332283D01*
X483598Y331370D01*
X483951Y330518D01*
X484512Y329787D01*
X485243Y329226D01*
X486094Y328873D01*
X486882Y328770D01*
X488442Y327210D01*
X488434Y327165D01*
Y325590D01*
X488442Y325546D01*
X486886Y323990D01*
X475846D01*
Y324331D01*
X475677Y325182D01*
X475195Y325903D01*
X474473Y326385D01*
X473622Y326554D01*
X472771Y326385D01*
X472050Y325903D01*
X471897Y325675D01*
X471397D01*
X471257Y325884D01*
X470536Y326366D01*
X469685Y326535D01*
X468834Y326366D01*
X468113Y325884D01*
X468096Y325858D01*
X467527Y325822D01*
X467277Y326087D01*
Y327165D01*
X467161Y327751D01*
X466829Y328247D01*
X465156Y329920D01*
X464660Y330252D01*
X464075Y330368D01*
X457283D01*
X456698Y330252D01*
X456661Y330227D01*
X456161Y330494D01*
Y334744D01*
X455992Y335595D01*
X455645Y336114D01*
X455896Y336614D01*
X475600D01*
X475851Y336114D01*
X475504Y335595D01*
X475335Y334744D01*
Y330020D01*
X475504Y329169D01*
X475987Y328447D01*
X476708Y327965D01*
X477559Y327796D01*
X479921D01*
X480772Y327965D01*
X481494Y328447D01*
X481976Y329169D01*
X482145Y330020D01*
Y334744D01*
X481976Y335595D01*
X481629Y336114D01*
X481880Y336614D01*
X517717D01*
Y224410D01*
D02*
G37*
%LPC*%
G36*
X451626Y233450D02*
X451043Y233373D01*
X450033Y232955D01*
X449166Y232290D01*
X448501Y231423D01*
X448083Y230414D01*
X448006Y229831D01*
X451626D01*
Y233450D01*
D02*
G37*
G36*
X452626D02*
Y229831D01*
X456246D01*
X456169Y230414D01*
X455751Y231423D01*
X455086Y232290D01*
X454219Y232955D01*
X453209Y233373D01*
X452626Y233450D01*
D02*
G37*
G36*
X511626Y228831D02*
X508006D01*
X508083Y228247D01*
X508501Y227238D01*
X509166Y226371D01*
X510033Y225706D01*
X511043Y225288D01*
X511626Y225211D01*
Y228831D01*
D02*
G37*
G36*
X516246D02*
X512626D01*
Y225211D01*
X513209Y225288D01*
X514219Y225706D01*
X515086Y226371D01*
X515751Y227238D01*
X516169Y228247D01*
X516246Y228831D01*
D02*
G37*
G36*
X511626Y233450D02*
X511043Y233373D01*
X510033Y232955D01*
X509166Y232290D01*
X508501Y231423D01*
X508083Y230414D01*
X508006Y229831D01*
X511626D01*
Y233450D01*
D02*
G37*
G36*
X512626D02*
Y229831D01*
X516246D01*
X516169Y230414D01*
X515751Y231423D01*
X515086Y232290D01*
X514219Y232955D01*
X513209Y233373D01*
X512626Y233450D01*
D02*
G37*
G36*
X491626D02*
X491043Y233373D01*
X490033Y232955D01*
X489166Y232290D01*
X488501Y231423D01*
X488083Y230414D01*
X488006Y229831D01*
X491626D01*
Y233450D01*
D02*
G37*
G36*
X492626D02*
Y229831D01*
X496246D01*
X496169Y230414D01*
X495751Y231423D01*
X495085Y232290D01*
X494219Y232955D01*
X493209Y233373D01*
X492626Y233450D01*
D02*
G37*
G36*
X482283Y274200D02*
X481370Y274079D01*
X480518Y273727D01*
X479787Y273165D01*
X479226Y272434D01*
X478873Y271583D01*
X478753Y270669D01*
X478873Y269756D01*
X479226Y268904D01*
X479787Y268173D01*
X480518Y267612D01*
X480597Y267580D01*
Y233189D01*
X480033Y232955D01*
X479166Y232290D01*
X478501Y231423D01*
X478083Y230414D01*
X477941Y229331D01*
X478083Y228247D01*
X478501Y227238D01*
X479166Y226371D01*
X480033Y225706D01*
X481043Y225288D01*
X482126Y225145D01*
X483209Y225288D01*
X484219Y225706D01*
X485085Y226371D01*
X485751Y227238D01*
X486169Y228247D01*
X486311Y229331D01*
X486169Y230414D01*
X485751Y231423D01*
X485085Y232290D01*
X484219Y232955D01*
X483655Y233189D01*
Y267449D01*
X484049Y267612D01*
X484780Y268173D01*
X485341Y268904D01*
X485693Y269756D01*
X485814Y270669D01*
X485693Y271583D01*
X485341Y272434D01*
X484780Y273165D01*
X484049Y273727D01*
X483197Y274079D01*
X482283Y274200D01*
D02*
G37*
G36*
X502126Y233516D02*
X501043Y233373D01*
X500033Y232955D01*
X499166Y232290D01*
X498501Y231423D01*
X498083Y230414D01*
X497941Y229331D01*
X498083Y228247D01*
X498501Y227238D01*
X499166Y226371D01*
X500033Y225706D01*
X501043Y225288D01*
X502126Y225145D01*
X503209Y225288D01*
X504219Y225706D01*
X505086Y226371D01*
X505751Y227238D01*
X506169Y228247D01*
X506311Y229331D01*
X506169Y230414D01*
X505751Y231423D01*
X505086Y232290D01*
X504219Y232955D01*
X503209Y233373D01*
X502126Y233516D01*
D02*
G37*
G36*
X462126D02*
X461043Y233373D01*
X460033Y232955D01*
X459166Y232290D01*
X458501Y231423D01*
X458083Y230414D01*
X457941Y229331D01*
X458083Y228247D01*
X458501Y227238D01*
X459166Y226371D01*
X460033Y225706D01*
X461043Y225288D01*
X462126Y225145D01*
X463209Y225288D01*
X464219Y225706D01*
X465086Y226371D01*
X465751Y227238D01*
X466169Y228247D01*
X466311Y229331D01*
X466169Y230414D01*
X465751Y231423D01*
X465086Y232290D01*
X464219Y232955D01*
X463209Y233373D01*
X462126Y233516D01*
D02*
G37*
G36*
X472047Y262979D02*
X471134Y262859D01*
X470282Y262506D01*
X469551Y261945D01*
X468990Y261214D01*
X468637Y260363D01*
X468517Y259449D01*
X468637Y258535D01*
X468990Y257684D01*
X469551Y256953D01*
X470282Y256392D01*
X470597Y256261D01*
Y233189D01*
X470033Y232955D01*
X469167Y232290D01*
X468501Y231423D01*
X468083Y230414D01*
X467941Y229331D01*
X468083Y228247D01*
X468501Y227238D01*
X469167Y226371D01*
X470033Y225706D01*
X471043Y225288D01*
X472126Y225145D01*
X473209Y225288D01*
X474219Y225706D01*
X475085Y226371D01*
X475751Y227238D01*
X476169Y228247D01*
X476311Y229331D01*
X476169Y230414D01*
X475751Y231423D01*
X475085Y232290D01*
X474219Y232955D01*
X473655Y233189D01*
Y256327D01*
X473812Y256392D01*
X474544Y256953D01*
X475105Y257684D01*
X475457Y258535D01*
X475577Y259449D01*
X475457Y260363D01*
X475105Y261214D01*
X474544Y261945D01*
X473812Y262506D01*
X472961Y262859D01*
X472047Y262979D01*
D02*
G37*
G36*
X491626Y228831D02*
X488006D01*
X488083Y228247D01*
X488501Y227238D01*
X489166Y226371D01*
X490033Y225706D01*
X491043Y225288D01*
X491626Y225211D01*
Y228831D01*
D02*
G37*
G36*
X496246D02*
X492626D01*
Y225211D01*
X493209Y225288D01*
X494219Y225706D01*
X495085Y226371D01*
X495751Y227238D01*
X496169Y228247D01*
X496246Y228831D01*
D02*
G37*
G36*
X451626D02*
X448006D01*
X448083Y228247D01*
X448501Y227238D01*
X449166Y226371D01*
X450033Y225706D01*
X451043Y225288D01*
X451626Y225211D01*
Y228831D01*
D02*
G37*
G36*
X456246D02*
X452626D01*
Y225211D01*
X453209Y225288D01*
X454219Y225706D01*
X455086Y226371D01*
X455751Y227238D01*
X456169Y228247D01*
X456246Y228831D01*
D02*
G37*
G36*
X494441Y319776D02*
X488434D01*
Y319488D01*
X488572Y318791D01*
X488967Y318199D01*
X489559Y317805D01*
X489908Y317735D01*
Y316517D01*
X489559Y316447D01*
X488967Y316052D01*
X488632Y315550D01*
X488140D01*
X487804Y316052D01*
X487213Y316447D01*
X486516Y316586D01*
X485835D01*
Y313976D01*
Y311367D01*
X486516D01*
X487213Y311505D01*
X487804Y311900D01*
X488140Y312402D01*
X488632D01*
X488967Y311900D01*
X489559Y311505D01*
X490256Y311367D01*
X490937D01*
Y313976D01*
X491437D01*
Y314476D01*
X494441D01*
Y314764D01*
X494302Y315461D01*
X493907Y316052D01*
X493316Y316447D01*
X492966Y316517D01*
Y317735D01*
X493316Y317805D01*
X493907Y318199D01*
X494302Y318791D01*
X494441Y319488D01*
Y319776D01*
D02*
G37*
G36*
X499500Y319972D02*
X497072D01*
X497108Y319697D01*
X497407Y318975D01*
X497883Y318355D01*
X498503Y317880D01*
X499225Y317580D01*
X499500Y317544D01*
Y319972D01*
D02*
G37*
G36*
X494441Y313476D02*
X491937D01*
Y311367D01*
X492618D01*
X493316Y311505D01*
X493907Y311900D01*
X494302Y312492D01*
X494441Y313189D01*
Y313476D01*
D02*
G37*
G36*
X475189Y317472D02*
X474902D01*
X474204Y317333D01*
X473613Y316938D01*
X473218Y316347D01*
X473079Y315650D01*
Y314968D01*
X475189D01*
Y317472D01*
D02*
G37*
G36*
X499500Y323401D02*
X499225Y323364D01*
X498503Y323065D01*
X497883Y322590D01*
X497407Y321970D01*
X497108Y321247D01*
X497072Y320972D01*
X499500D01*
Y323401D01*
D02*
G37*
G36*
X500500D02*
Y320972D01*
X502928D01*
X502892Y321247D01*
X502593Y321970D01*
X502117Y322590D01*
X501497Y323065D01*
X500775Y323364D01*
X500500Y323401D01*
D02*
G37*
G36*
X502928Y319972D02*
X500500D01*
Y317544D01*
X500775Y317580D01*
X501497Y317880D01*
X502117Y318355D01*
X502593Y318975D01*
X502892Y319697D01*
X502928Y319972D01*
D02*
G37*
G36*
X492618Y322885D02*
X491937D01*
Y320776D01*
X494441D01*
Y321063D01*
X494302Y321760D01*
X493907Y322352D01*
X493316Y322747D01*
X492618Y322885D01*
D02*
G37*
G36*
X513091Y290833D02*
X512177Y290713D01*
X511326Y290360D01*
X510594Y289799D01*
X510033Y289068D01*
X509936Y288832D01*
X506536D01*
X506408Y289477D01*
X506013Y290068D01*
X505422Y290463D01*
X504724Y290602D01*
X502362D01*
X501665Y290463D01*
X501074Y290068D01*
X500891Y289795D01*
X500290D01*
X500107Y290068D01*
X499516Y290463D01*
X498819Y290602D01*
X496457D01*
X495759Y290463D01*
X495168Y290068D01*
X494773Y289477D01*
X494634Y288779D01*
Y287205D01*
X494773Y286507D01*
X495168Y285916D01*
X495759Y285521D01*
X496108Y285452D01*
Y283268D01*
X496225Y282682D01*
X496556Y282186D01*
X500273Y278470D01*
X500769Y278138D01*
X501354Y278022D01*
X509912D01*
X510010Y277786D01*
X510571Y277055D01*
X511302Y276494D01*
X512153Y276141D01*
X513067Y276021D01*
X513981Y276141D01*
X514832Y276494D01*
X515563Y277055D01*
X516124Y277786D01*
X516477Y278638D01*
X516597Y279551D01*
X516477Y280465D01*
X516124Y281316D01*
X515563Y282047D01*
X514832Y282608D01*
X513981Y282961D01*
X513067Y283081D01*
X512153Y282961D01*
X511302Y282608D01*
X510571Y282047D01*
X510010Y281316D01*
X509912Y281081D01*
X501988D01*
X499167Y283901D01*
Y285452D01*
X499516Y285521D01*
X500107Y285916D01*
X500290Y286189D01*
X500891D01*
X501074Y285916D01*
X501665Y285521D01*
X502362Y285382D01*
X504724D01*
X505422Y285521D01*
X505800Y285774D01*
X509936D01*
X510033Y285538D01*
X510594Y284807D01*
X511326Y284246D01*
X512177Y283893D01*
X513091Y283773D01*
X514004Y283893D01*
X514856Y284246D01*
X515587Y284807D01*
X516148Y285538D01*
X516501Y286389D01*
X516621Y287303D01*
X516501Y288217D01*
X516148Y289068D01*
X515587Y289799D01*
X514856Y290360D01*
X514004Y290713D01*
X513091Y290833D01*
D02*
G37*
G36*
X506547Y293595D02*
X504043D01*
Y291485D01*
X504724D01*
X505422Y291623D01*
X506013Y292018D01*
X506408Y292610D01*
X506547Y293307D01*
Y293595D01*
D02*
G37*
G36*
X450984Y290781D02*
X450071Y290661D01*
X449219Y290308D01*
X448488Y289747D01*
X447927Y289016D01*
X447574Y288165D01*
X447454Y287251D01*
X447574Y286337D01*
X447927Y285486D01*
X448488Y284755D01*
X449219Y284194D01*
X450071Y283841D01*
X450984Y283721D01*
X451898Y283841D01*
X452749Y284194D01*
X453480Y284755D01*
X454041Y285486D01*
X454394Y286337D01*
X454515Y287251D01*
X454394Y288165D01*
X454041Y289016D01*
X453480Y289747D01*
X452749Y290308D01*
X451898Y290661D01*
X450984Y290781D01*
D02*
G37*
G36*
X477559Y291881D02*
X475197D01*
X474499Y291743D01*
X473908Y291348D01*
X473513Y290757D01*
X473374Y290059D01*
Y288484D01*
X473513Y287787D01*
X473908Y287196D01*
X474499Y286801D01*
X475197Y286662D01*
X477559D01*
X478257Y286801D01*
X478848Y287196D01*
X479243Y287787D01*
X479382Y288484D01*
Y290059D01*
X479243Y290757D01*
X478848Y291348D01*
X478257Y291743D01*
X477559Y291881D01*
D02*
G37*
G36*
X462992Y303791D02*
X460630D01*
X459933Y303652D01*
X459341Y303257D01*
X458946Y302666D01*
X458808Y301969D01*
Y301348D01*
X458626Y301077D01*
X458510Y300492D01*
X458626Y299907D01*
X458958Y299411D01*
X459281Y299195D01*
X459341Y299105D01*
X459933Y298710D01*
X460182Y298660D01*
X460197Y298153D01*
X459735Y297844D01*
X459340Y297252D01*
X459246Y296781D01*
X454115D01*
X454017Y297016D01*
X453456Y297747D01*
X452725Y298308D01*
X451873Y298661D01*
X450960Y298781D01*
X450046Y298661D01*
X449195Y298308D01*
X448464Y297747D01*
X447903Y297016D01*
X447550Y296165D01*
X447430Y295251D01*
X447550Y294338D01*
X447903Y293486D01*
X448464Y292755D01*
X449195Y292194D01*
X450046Y291841D01*
X450960Y291721D01*
X451873Y291841D01*
X452725Y292194D01*
X453456Y292755D01*
X454017Y293486D01*
X454115Y293722D01*
X459295D01*
X459340Y293495D01*
X459735Y292904D01*
X460326Y292509D01*
X461024Y292371D01*
X462598D01*
X463296Y292509D01*
X463887Y292904D01*
X464282Y293495D01*
X464421Y294193D01*
Y296555D01*
X464282Y297252D01*
X463887Y297844D01*
X463424Y298153D01*
X463440Y298660D01*
X463690Y298710D01*
X464281Y299105D01*
X464676Y299696D01*
X464815Y300394D01*
Y301969D01*
X464676Y302666D01*
X464281Y303257D01*
X463690Y303652D01*
X462992Y303791D01*
D02*
G37*
G36*
X476476Y317472D02*
X476189D01*
Y314469D01*
X475689D01*
Y313968D01*
X473079D01*
Y313287D01*
X473218Y312590D01*
X473613Y311999D01*
X474204Y311604D01*
X474602Y311525D01*
Y311015D01*
X474204Y310936D01*
X473613Y310541D01*
X473218Y309949D01*
X473079Y309252D01*
Y306890D01*
X473218Y306192D01*
X473613Y305601D01*
X474204Y305206D01*
X474902Y305067D01*
X476476D01*
X476521Y305076D01*
X481443Y300154D01*
Y286067D01*
X473895Y278518D01*
X473421Y278752D01*
X473511Y279429D01*
X473390Y280343D01*
X473038Y281194D01*
X472476Y281925D01*
X471745Y282486D01*
X470894Y282839D01*
X469980Y282959D01*
X469067Y282839D01*
X468215Y282486D01*
X467484Y281925D01*
X466923Y281194D01*
X466835Y280981D01*
X454139D01*
X454041Y281216D01*
X453480Y281947D01*
X452749Y282508D01*
X451898Y282861D01*
X450984Y282981D01*
X450071Y282861D01*
X449219Y282508D01*
X448488Y281947D01*
X447927Y281216D01*
X447574Y280365D01*
X447454Y279451D01*
X447574Y278538D01*
X447927Y277686D01*
X448488Y276955D01*
X449219Y276394D01*
X450071Y276041D01*
X450984Y275921D01*
X451898Y276041D01*
X452749Y276394D01*
X453480Y276955D01*
X454041Y277686D01*
X454139Y277922D01*
X466816D01*
X466923Y277664D01*
X467484Y276933D01*
X468215Y276372D01*
X469067Y276019D01*
X469980Y275899D01*
X470657Y275988D01*
X470891Y275515D01*
X468457Y273081D01*
X454139D01*
X454041Y273316D01*
X453480Y274047D01*
X452749Y274608D01*
X451898Y274961D01*
X450984Y275081D01*
X450071Y274961D01*
X449219Y274608D01*
X448488Y274047D01*
X447927Y273316D01*
X447574Y272465D01*
X447454Y271551D01*
X447574Y270637D01*
X447927Y269786D01*
X448488Y269055D01*
X449219Y268494D01*
X450071Y268141D01*
X450984Y268021D01*
X451898Y268141D01*
X452749Y268494D01*
X453480Y269055D01*
X454041Y269786D01*
X454139Y270022D01*
X467796D01*
X467987Y269560D01*
X463608Y265181D01*
X454039D01*
X453941Y265416D01*
X453380Y266147D01*
X452649Y266708D01*
X451798Y267061D01*
X450884Y267181D01*
X449971Y267061D01*
X449119Y266708D01*
X448388Y266147D01*
X447827Y265416D01*
X447474Y264565D01*
X447354Y263651D01*
X447474Y262737D01*
X447827Y261886D01*
X448388Y261155D01*
X449119Y260594D01*
X449971Y260241D01*
X450884Y260121D01*
X451798Y260241D01*
X452649Y260594D01*
X453380Y261155D01*
X453941Y261886D01*
X454039Y262122D01*
X463046D01*
X463237Y261660D01*
X458958Y257381D01*
X454039D01*
X453941Y257616D01*
X453380Y258347D01*
X452649Y258908D01*
X451798Y259261D01*
X450884Y259381D01*
X449971Y259261D01*
X449119Y258908D01*
X448388Y258347D01*
X447827Y257616D01*
X447474Y256765D01*
X447354Y255851D01*
X447474Y254938D01*
X447827Y254086D01*
X448388Y253355D01*
X449119Y252794D01*
X449971Y252441D01*
X450884Y252321D01*
X451798Y252441D01*
X452649Y252794D01*
X453380Y253355D01*
X453941Y254086D01*
X454039Y254322D01*
X459591D01*
X460177Y254438D01*
X460673Y254770D01*
X491239Y285336D01*
X491570Y285832D01*
X491643Y286197D01*
X491923Y286313D01*
X492654Y286874D01*
X493215Y287605D01*
X493567Y288456D01*
X493688Y289370D01*
X493567Y290284D01*
X493215Y291135D01*
X492654Y291866D01*
X491923Y292427D01*
X491071Y292780D01*
X490158Y292900D01*
X489244Y292780D01*
X488392Y292427D01*
X487661Y291866D01*
X487364Y291479D01*
X486864Y291649D01*
Y305333D01*
X487213Y305403D01*
X487804Y305798D01*
X488108Y306252D01*
X488188Y306276D01*
X488584D01*
X488664Y306252D01*
X488967Y305798D01*
X489559Y305403D01*
X489908Y305333D01*
Y305020D01*
X490024Y304434D01*
X490356Y303938D01*
X492029Y302265D01*
X492525Y301934D01*
X493110Y301817D01*
X495430D01*
X496108Y301138D01*
Y296635D01*
X495759Y296566D01*
X495168Y296170D01*
X494773Y295579D01*
X494634Y294882D01*
Y293307D01*
X494773Y292610D01*
X495168Y292018D01*
X495759Y291623D01*
X496457Y291485D01*
X498819D01*
X499516Y291623D01*
X500107Y292018D01*
X500290Y292291D01*
X500891D01*
X501074Y292018D01*
X501665Y291623D01*
X502362Y291485D01*
X503043D01*
Y294094D01*
Y296704D01*
X502362D01*
X501665Y296566D01*
X501074Y296170D01*
X500891Y295898D01*
X500290D01*
X500107Y296170D01*
X499516Y296566D01*
X499167Y296635D01*
Y301772D01*
X499204Y301817D01*
X501455D01*
X501466Y301763D01*
X501861Y301172D01*
X502452Y300777D01*
X503150Y300638D01*
X505512D01*
X506209Y300777D01*
X506801Y301172D01*
X507034Y301522D01*
X509936D01*
X510033Y301286D01*
X510594Y300555D01*
X511326Y299994D01*
X512177Y299641D01*
X513091Y299521D01*
X514004Y299641D01*
X514856Y299994D01*
X515587Y300555D01*
X516148Y301286D01*
X516501Y302137D01*
X516621Y303051D01*
X516501Y303965D01*
X516148Y304816D01*
X515587Y305547D01*
X514856Y306108D01*
X514004Y306461D01*
X513091Y306581D01*
X512177Y306461D01*
X511326Y306108D01*
X510594Y305547D01*
X510033Y304816D01*
X509936Y304581D01*
X507226D01*
X507196Y304733D01*
X506801Y305324D01*
X506209Y305719D01*
X505512Y305858D01*
X503150D01*
X502452Y305719D01*
X501861Y305324D01*
X501561Y304876D01*
X494073D01*
X493780Y305195D01*
X493844Y305756D01*
X493907Y305798D01*
X494302Y306389D01*
X494441Y307087D01*
Y308661D01*
X494302Y309359D01*
X493907Y309950D01*
X493316Y310345D01*
X492618Y310484D01*
X490256D01*
X489559Y310345D01*
X488967Y309950D01*
X488664Y309496D01*
X488584Y309472D01*
X488188D01*
X488108Y309496D01*
X487804Y309950D01*
X487213Y310345D01*
X486516Y310484D01*
X484154D01*
X483456Y310345D01*
X482865Y309950D01*
X482470Y309359D01*
X482331Y308661D01*
Y307087D01*
X482470Y306389D01*
X482865Y305798D01*
X483456Y305403D01*
X483805Y305333D01*
Y302771D01*
X483343Y302579D01*
X478299Y307624D01*
Y309252D01*
X478160Y309949D01*
X477765Y310541D01*
X477174Y310936D01*
X476776Y311015D01*
Y311525D01*
X477174Y311604D01*
X477765Y311999D01*
X478160Y312590D01*
X478230Y312939D01*
X482381D01*
X482470Y312492D01*
X482865Y311900D01*
X483456Y311505D01*
X484154Y311367D01*
X484835D01*
Y313976D01*
Y316586D01*
X484154D01*
X483456Y316447D01*
X482865Y316052D01*
X482829Y315998D01*
X478230D01*
X478160Y316347D01*
X477765Y316938D01*
X477174Y317333D01*
X476476Y317472D01*
D02*
G37*
G36*
X468701Y298377D02*
X467126D01*
X466429Y298239D01*
X465837Y297844D01*
X465442Y297252D01*
X465304Y296555D01*
Y294193D01*
X465442Y293495D01*
X465837Y292904D01*
X465846Y292812D01*
X464535Y291501D01*
X464299Y291599D01*
X463386Y291719D01*
X462472Y291599D01*
X461621Y291246D01*
X460890Y290685D01*
X460329Y289954D01*
X459976Y289103D01*
X459856Y288189D01*
X459976Y287275D01*
X460329Y286424D01*
X460890Y285693D01*
X461621Y285132D01*
X462472Y284779D01*
X463386Y284659D01*
X464299Y284779D01*
X465151Y285132D01*
X465882Y285693D01*
X466443Y286424D01*
X466796Y287275D01*
X466916Y288189D01*
X466796Y289103D01*
X466698Y289338D01*
X468995Y291635D01*
X469326Y292131D01*
X469402Y292512D01*
X469989Y292904D01*
X470385Y293495D01*
X470454Y293845D01*
X473543D01*
X473908Y293298D01*
X474499Y292903D01*
X475197Y292764D01*
X477559D01*
X478257Y292903D01*
X478848Y293298D01*
X479243Y293889D01*
X479382Y294587D01*
Y296161D01*
X479243Y296859D01*
X478848Y297450D01*
X478257Y297845D01*
X477559Y297984D01*
X475197D01*
X474499Y297845D01*
X473908Y297450D01*
X473543Y296903D01*
X470454D01*
X470385Y297252D01*
X469989Y297844D01*
X469398Y298239D01*
X468701Y298377D01*
D02*
G37*
G36*
X504724Y296704D02*
X504043D01*
Y294595D01*
X506547D01*
Y294882D01*
X506408Y295579D01*
X506013Y296170D01*
X505422Y296566D01*
X504724Y296704D01*
D02*
G37*
%LPD*%
D10*
X500000Y320472D02*
D03*
X487008Y332283D02*
D03*
D11*
X465748Y322441D02*
D03*
X469685D02*
D03*
X473622Y322461D02*
D03*
X461811Y322441D02*
D03*
X457874D02*
D03*
D12*
X478740Y332382D02*
D03*
X452756D02*
D03*
D13*
X476378Y295374D02*
D03*
Y289272D02*
D03*
X491437Y320276D02*
D03*
Y326378D02*
D03*
X485335Y307874D02*
D03*
Y313976D02*
D03*
X461811Y301181D02*
D03*
Y307283D02*
D03*
X504331Y309350D02*
D03*
Y303248D02*
D03*
X497638Y294094D02*
D03*
Y287992D02*
D03*
X503543D02*
D03*
Y294094D02*
D03*
X491437Y307874D02*
D03*
Y313976D02*
D03*
D14*
X475689Y308071D02*
D03*
X469587D02*
D03*
X467913Y295374D02*
D03*
X461811D02*
D03*
X469587Y314469D02*
D03*
X475689D02*
D03*
D15*
X472047Y259449D02*
X472126Y259370D01*
Y229331D02*
Y259370D01*
X487008Y330807D02*
X491437Y326378D01*
X487008Y330807D02*
Y332283D01*
X508268Y330315D02*
X510630Y327953D01*
X495374Y330315D02*
X508268D01*
X491437Y326378D02*
X495374Y330315D01*
X510630Y315650D02*
Y327953D01*
X504331Y309350D02*
X510630Y315650D01*
X504331Y303248D02*
X504528Y303051D01*
X504232Y303346D02*
X504331Y303248D01*
X504528Y303051D02*
X513091D01*
X496063Y303346D02*
X504232D01*
X493110D02*
X496063D01*
X497638Y301772D01*
Y294094D02*
Y301772D01*
X463386Y288189D02*
X467913Y292717D01*
Y295374D01*
X469958Y279451D02*
X469980Y279429D01*
X450984Y279451D02*
X469958D01*
X482126Y270512D02*
X482283Y270669D01*
X482126Y229331D02*
Y270512D01*
X490158Y286417D02*
Y289370D01*
X459591Y255851D02*
X490158Y286417D01*
X450884Y255851D02*
X459591D01*
X450960Y295251D02*
X461688D01*
X475689Y308071D02*
X482972Y300787D01*
Y285433D02*
Y300787D01*
X469091Y271551D02*
X482972Y285433D01*
X485335Y284744D02*
Y307874D01*
X464242Y263651D02*
X485335Y284744D01*
X450984Y271551D02*
X469091D01*
X476106Y289000D02*
X476378Y289272D01*
X450884Y263651D02*
X464242D01*
X476378Y295374D02*
X476378Y295374D01*
X467913Y295374D02*
X476378D01*
X461811Y307283D02*
Y322441D01*
X461688Y295251D02*
X461811Y295374D01*
Y301181D01*
X460039Y300492D02*
X460433Y300886D01*
X484842Y314469D02*
X485335Y313976D01*
X475689Y314469D02*
X484842D01*
X469587Y308071D02*
Y314469D01*
X469685Y314567D01*
Y322441D01*
X487520Y322461D02*
X491437Y326378D01*
X473622Y322461D02*
X487520D01*
X491437Y313976D02*
Y320276D01*
X485335Y313976D02*
X491437D01*
Y305020D02*
Y307874D01*
Y305020D02*
X493110Y303346D01*
X512795D02*
X513091Y303051D01*
X497638Y283268D02*
Y287992D01*
Y283268D02*
X501354Y279551D01*
X513067D01*
X504232Y287303D02*
X513091D01*
X503543Y287992D02*
X504232Y287303D01*
X450984Y303051D02*
Y322539D01*
X457283Y328839D01*
X464075D01*
X465748Y327165D01*
Y322441D02*
Y327165D01*
X469488Y322244D02*
X469685Y322441D01*
D16*
X452126Y229331D02*
D03*
X462126D02*
D03*
X472126D02*
D03*
X482126D02*
D03*
X492126D02*
D03*
X502126D02*
D03*
X512126D02*
D03*
D17*
X472047Y259449D02*
D03*
X450984Y287251D02*
D03*
X487008Y332283D02*
D03*
X463386Y288189D02*
D03*
X469980Y279429D02*
D03*
X450984Y279451D02*
D03*
X482283Y270669D02*
D03*
X490158Y289370D02*
D03*
X450884Y255851D02*
D03*
Y263651D02*
D03*
X450984Y271551D02*
D03*
X513091Y303051D02*
D03*
X513067Y279551D02*
D03*
X513091Y287303D02*
D03*
X450984Y303051D02*
D03*
X450960Y295251D02*
D03*
M02*
