G04 Layer_Color=8388736*
%FSLAX25Y25*%
%MOIN*%
G70*
G01*
G75*
G04:AMPARAMS|DCode=34|XSize=47.37mil|YSize=39.5mil|CornerRadius=11.87mil|HoleSize=0mil|Usage=FLASHONLY|Rotation=90.000|XOffset=0mil|YOffset=0mil|HoleType=Round|Shape=RoundedRectangle|*
%AMROUNDEDRECTD34*
21,1,0.04737,0.01575,0,0,90.0*
21,1,0.02362,0.03950,0,0,90.0*
1,1,0.02375,0.00787,0.01181*
1,1,0.02375,0.00787,-0.01181*
1,1,0.02375,-0.00787,-0.01181*
1,1,0.02375,-0.00787,0.01181*
%
%ADD34ROUNDEDRECTD34*%
G04:AMPARAMS|DCode=35|XSize=47.37mil|YSize=39.5mil|CornerRadius=11.87mil|HoleSize=0mil|Usage=FLASHONLY|Rotation=180.000|XOffset=0mil|YOffset=0mil|HoleType=Round|Shape=RoundedRectangle|*
%AMROUNDEDRECTD35*
21,1,0.04737,0.01575,0,0,180.0*
21,1,0.02362,0.03950,0,0,180.0*
1,1,0.02375,-0.01181,0.00787*
1,1,0.02375,0.01181,0.00787*
1,1,0.02375,0.01181,-0.00787*
1,1,0.02375,-0.01181,-0.00787*
%
%ADD35ROUNDEDRECTD35*%
%ADD36R,0.05524X0.04737*%
G04:AMPARAMS|DCode=37|XSize=70.99mil|YSize=55.24mil|CornerRadius=0mil|HoleSize=0mil|Usage=FLASHONLY|Rotation=90.000|XOffset=0mil|YOffset=0mil|HoleType=Round|Shape=Octagon|*
%AMOCTAGOND37*
4,1,8,0.01381,0.03550,-0.01381,0.03550,-0.02762,0.02168,-0.02762,-0.02168,-0.01381,-0.03550,0.01381,-0.03550,0.02762,-0.02168,0.02762,0.02168,0.01381,0.03550,0.0*
%
%ADD37OCTAGOND37*%

%ADD38R,0.03556X0.03162*%
%ADD39R,0.03556X0.03950*%
%ADD40R,0.02768X0.04737*%
G04:AMPARAMS|DCode=41|XSize=31.62mil|YSize=31.62mil|CornerRadius=9.9mil|HoleSize=0mil|Usage=FLASHONLY|Rotation=270.000|XOffset=0mil|YOffset=0mil|HoleType=Round|Shape=RoundedRectangle|*
%AMROUNDEDRECTD41*
21,1,0.03162,0.01181,0,0,270.0*
21,1,0.01181,0.03162,0,0,270.0*
1,1,0.01981,-0.00591,-0.00591*
1,1,0.01981,-0.00591,0.00591*
1,1,0.01981,0.00591,0.00591*
1,1,0.01981,0.00591,-0.00591*
%
%ADD41ROUNDEDRECTD41*%
%ADD42R,0.11811X0.07874*%
%ADD43R,0.04737X0.08674*%
G04:AMPARAMS|DCode=44|XSize=55.24mil|YSize=78.87mil|CornerRadius=15.81mil|HoleSize=0mil|Usage=FLASHONLY|Rotation=0.000|XOffset=0mil|YOffset=0mil|HoleType=Round|Shape=RoundedRectangle|*
%AMROUNDEDRECTD44*
21,1,0.05524,0.04724,0,0,0.0*
21,1,0.02362,0.07887,0,0,0.0*
1,1,0.03162,0.01181,-0.02362*
1,1,0.03162,-0.01181,-0.02362*
1,1,0.03162,-0.01181,0.02362*
1,1,0.03162,0.01181,0.02362*
%
%ADD44ROUNDEDRECTD44*%
%ADD45O,0.03162X0.06902*%
%ADD46C,0.04737*%
D34*
X525295Y263681D02*
D03*
X519193D02*
D03*
X525197Y271555D02*
D03*
X519095D02*
D03*
X519193Y255807D02*
D03*
X525295D02*
D03*
X525295Y247933D02*
D03*
X531398D02*
D03*
X558661Y260236D02*
D03*
X552559D02*
D03*
X541535Y308465D02*
D03*
X547638D02*
D03*
X541535Y315748D02*
D03*
X547638D02*
D03*
D35*
X514272Y307776D02*
D03*
Y301673D02*
D03*
X520177Y298425D02*
D03*
Y304528D02*
D03*
X531299Y265453D02*
D03*
Y271555D02*
D03*
X577067Y274114D02*
D03*
Y268012D02*
D03*
X571949Y293602D02*
D03*
Y287500D02*
D03*
X571752Y309154D02*
D03*
Y303051D02*
D03*
X520079Y293209D02*
D03*
Y287106D02*
D03*
X540453Y273130D02*
D03*
Y279232D02*
D03*
D36*
X562894Y296752D02*
D03*
D37*
Y303051D02*
D03*
D38*
X541831Y301969D02*
D03*
X547736D02*
D03*
X553642D02*
D03*
Y290158D02*
D03*
X541831D02*
D03*
X547736Y290158D02*
D03*
D39*
X541831Y296063D02*
D03*
D40*
X547736Y275394D02*
D03*
Y284055D02*
D03*
X552658D02*
D03*
X557579D02*
D03*
X562500D02*
D03*
Y275394D02*
D03*
X557579D02*
D03*
X552658D02*
D03*
D41*
X561713Y266437D02*
D03*
X565650D02*
D03*
X552559D02*
D03*
X556496D02*
D03*
D42*
X565551Y332776D02*
D03*
D43*
X576772D02*
D03*
D44*
X512795Y333169D02*
D03*
X538779D02*
D03*
D45*
X517913Y323228D02*
D03*
X521850D02*
D03*
X533661Y323248D02*
D03*
X529724Y323228D02*
D03*
X525787D02*
D03*
D46*
X565650Y260236D02*
D03*
X517913Y316535D02*
D03*
X527854Y290059D02*
D03*
X531299Y276083D02*
D03*
X514124Y263632D02*
D03*
X514343Y287231D02*
D03*
X514269Y279432D02*
D03*
X525787Y316634D02*
D03*
X514217Y295232D02*
D03*
X514295Y271532D02*
D03*
X577165Y247933D02*
D03*
X514076Y247932D02*
D03*
X514099Y255832D02*
D03*
X576898Y287332D02*
D03*
X577161Y279532D02*
D03*
X577146Y303031D02*
D03*
X536500Y269200D02*
D03*
X535700Y293600D02*
D03*
X557800Y315800D02*
D03*
X529724Y311319D02*
D03*
X565650Y321063D02*
D03*
M02*
