M48
;Layer_Color=9474304
;FILE_FORMAT=2:5
INCH,TZ
;TYPE=PLATED
T1F00S00C0.02362
%
T01
X514076Y247932
X514099Y255832
X514124Y263632
X514295Y271532
X514269Y279432
X514343Y287231
X514217Y295232
X527854Y290059
X535700Y293600
X531299Y276083
X536500Y269200
X565650Y260236
X577165Y247933
X577161Y279532
X576898Y287332
X577146Y303031
X529724Y311319
X525787Y316634
X517913Y316535
X557800Y315800
X565650Y321063
M30
