G04 Layer_Physical_Order=1*
G04 Layer_Color=255*
%FSLAX25Y25*%
%MOIN*%
G70*
G01*
G75*
G04:AMPARAMS|DCode=10|XSize=39.37mil|YSize=31.5mil|CornerRadius=7.87mil|HoleSize=0mil|Usage=FLASHONLY|Rotation=90.000|XOffset=0mil|YOffset=0mil|HoleType=Round|Shape=RoundedRectangle|*
%AMROUNDEDRECTD10*
21,1,0.03937,0.01575,0,0,90.0*
21,1,0.02362,0.03150,0,0,90.0*
1,1,0.01575,0.00787,0.01181*
1,1,0.01575,0.00787,-0.01181*
1,1,0.01575,-0.00787,-0.01181*
1,1,0.01575,-0.00787,0.01181*
%
%ADD10ROUNDEDRECTD10*%
G04:AMPARAMS|DCode=11|XSize=39.37mil|YSize=31.5mil|CornerRadius=7.87mil|HoleSize=0mil|Usage=FLASHONLY|Rotation=180.000|XOffset=0mil|YOffset=0mil|HoleType=Round|Shape=RoundedRectangle|*
%AMROUNDEDRECTD11*
21,1,0.03937,0.01575,0,0,180.0*
21,1,0.02362,0.03150,0,0,180.0*
1,1,0.01575,-0.01181,0.00787*
1,1,0.01575,0.01181,0.00787*
1,1,0.01575,0.01181,-0.00787*
1,1,0.01575,-0.01181,-0.00787*
%
%ADD11ROUNDEDRECTD11*%
%ADD12R,0.04724X0.03937*%
G04:AMPARAMS|DCode=13|XSize=62.99mil|YSize=47.24mil|CornerRadius=0mil|HoleSize=0mil|Usage=FLASHONLY|Rotation=90.000|XOffset=0mil|YOffset=0mil|HoleType=Round|Shape=Octagon|*
%AMOCTAGOND13*
4,1,8,0.01181,0.03150,-0.01181,0.03150,-0.02362,0.01968,-0.02362,-0.01968,-0.01181,-0.03150,0.01181,-0.03150,0.02362,-0.01968,0.02362,0.01968,0.01181,0.03150,0.0*
%
%ADD13OCTAGOND13*%

%ADD14R,0.02756X0.02362*%
%ADD15R,0.02756X0.03150*%
%ADD16R,0.01968X0.03937*%
G04:AMPARAMS|DCode=17|XSize=23.62mil|YSize=23.62mil|CornerRadius=5.91mil|HoleSize=0mil|Usage=FLASHONLY|Rotation=270.000|XOffset=0mil|YOffset=0mil|HoleType=Round|Shape=RoundedRectangle|*
%AMROUNDEDRECTD17*
21,1,0.02362,0.01181,0,0,270.0*
21,1,0.01181,0.02362,0,0,270.0*
1,1,0.01181,-0.00591,-0.00591*
1,1,0.01181,-0.00591,0.00591*
1,1,0.01181,0.00591,0.00591*
1,1,0.01181,0.00591,-0.00591*
%
%ADD17ROUNDEDRECTD17*%
%ADD18R,0.07874X0.03937*%
%ADD19R,0.03937X0.07874*%
G04:AMPARAMS|DCode=20|XSize=47.24mil|YSize=70.87mil|CornerRadius=11.81mil|HoleSize=0mil|Usage=FLASHONLY|Rotation=0.000|XOffset=0mil|YOffset=0mil|HoleType=Round|Shape=RoundedRectangle|*
%AMROUNDEDRECTD20*
21,1,0.04724,0.04724,0,0,0.0*
21,1,0.02362,0.07087,0,0,0.0*
1,1,0.02362,0.01181,-0.02362*
1,1,0.02362,-0.01181,-0.02362*
1,1,0.02362,-0.01181,0.02362*
1,1,0.02362,0.01181,0.02362*
%
%ADD20ROUNDEDRECTD20*%
%ADD21O,0.02362X0.06102*%
%ADD22C,0.01575*%
%ADD23C,0.02362*%
%ADD24C,0.01181*%
%ADD25C,0.03937*%
D10*
X525295Y263681D02*
D03*
X519193D02*
D03*
X525197Y271555D02*
D03*
X519095D02*
D03*
X519193Y255807D02*
D03*
X525295D02*
D03*
X525295Y247933D02*
D03*
X531398D02*
D03*
X558661Y260236D02*
D03*
X552559D02*
D03*
X541535Y308465D02*
D03*
X547638D02*
D03*
X541535Y315748D02*
D03*
X547638D02*
D03*
D11*
X514272Y307776D02*
D03*
Y301673D02*
D03*
X520177Y298425D02*
D03*
Y304528D02*
D03*
X531299Y265453D02*
D03*
Y271555D02*
D03*
X577067Y274114D02*
D03*
Y268012D02*
D03*
X571949Y293602D02*
D03*
Y287500D02*
D03*
X571752Y309154D02*
D03*
Y303051D02*
D03*
X520079Y293209D02*
D03*
Y287106D02*
D03*
X540453Y273130D02*
D03*
Y279232D02*
D03*
D12*
X562894Y296752D02*
D03*
D13*
Y303051D02*
D03*
D14*
X541831Y301969D02*
D03*
X547736D02*
D03*
X553642D02*
D03*
Y290158D02*
D03*
X541831D02*
D03*
X547736Y290158D02*
D03*
D15*
X541831Y296063D02*
D03*
D16*
X547736Y275394D02*
D03*
Y284055D02*
D03*
X552658D02*
D03*
X557579D02*
D03*
X562500D02*
D03*
Y275394D02*
D03*
X557579D02*
D03*
X552658D02*
D03*
D17*
X561713Y266437D02*
D03*
X565650D02*
D03*
X552559D02*
D03*
X556496D02*
D03*
D18*
X565551Y332776D02*
D03*
D19*
X576772D02*
D03*
D20*
X512795Y333169D02*
D03*
X538779D02*
D03*
D21*
X517913Y323228D02*
D03*
X521850D02*
D03*
X533661Y323248D02*
D03*
X529724Y323228D02*
D03*
X525787D02*
D03*
D22*
X540453Y273130D02*
X542717Y275394D01*
X547736D01*
X552658D01*
D23*
X536500Y269200D02*
X536523D01*
X540453Y273130D01*
X532753Y265453D02*
X536500Y269200D01*
X531299Y265453D02*
X532753D01*
X529528Y263681D02*
X531299Y265453D01*
X525295Y263681D02*
X529528D01*
X549016Y250492D02*
X574606D01*
X533957D02*
X549016D01*
X552559Y254035D01*
Y260236D01*
X574606Y250492D02*
X577165Y247933D01*
X531398D02*
X533957Y250492D01*
X514076Y247932D02*
X525294D01*
X525295Y247933D02*
Y255807D01*
X572591Y315800D02*
X576772Y319980D01*
Y332776D01*
X571752Y309154D02*
Y314324D01*
X570276Y315800D02*
X571752Y314324D01*
X557800Y315800D02*
X570276D01*
X572591D01*
X565551Y321161D02*
Y332776D01*
Y321161D02*
X565650Y321063D01*
X533661Y323248D02*
X535847Y321063D01*
X544390D01*
X565650D01*
X547690Y315800D02*
X557800D01*
X547638Y315748D02*
X547690Y315800D01*
D24*
X565650Y260236D02*
X565650Y260236D01*
X565650Y260236D02*
Y266437D01*
X558661Y260236D02*
X565650D01*
X565551Y332776D02*
X565650Y332677D01*
X517913Y323228D02*
X517913Y323228D01*
Y316535D02*
Y323228D01*
X541732Y290059D02*
X541831Y290158D01*
X527854Y290059D02*
X541732D01*
X565650Y277854D02*
Y288878D01*
X562894Y291634D02*
X565650Y288878D01*
X562894Y291634D02*
Y296752D01*
X536811Y303740D02*
X541535Y308465D01*
X536811Y298524D02*
Y303740D01*
Y298524D02*
X539272Y296063D01*
X541831D01*
X568209Y301181D02*
X570079Y303051D01*
X571752D01*
X562894Y303051D02*
X566339D01*
X568209Y301181D01*
Y276870D02*
Y301181D01*
X547638Y308465D02*
Y315748D01*
Y308465D02*
X547736Y308366D01*
Y301969D02*
Y308366D01*
Y301969D02*
X553642D01*
X541535Y308465D02*
Y315748D01*
X565650Y266437D02*
Y277854D01*
X563681Y279823D02*
X565650Y277854D01*
X559252Y279823D02*
X563681D01*
X557579Y278150D02*
X559252Y279823D01*
X557579Y275394D02*
Y278150D01*
X568209Y276870D02*
X577067Y268012D01*
X552559Y260236D02*
Y266437D01*
X561713D02*
X562500Y267224D01*
Y275394D01*
X556496Y266437D02*
X561713D01*
X552559D02*
X552658Y266535D01*
Y275394D01*
X523622Y284055D02*
X547736D01*
X520446Y287231D02*
X523622Y284055D01*
X531299Y271555D02*
Y276083D01*
X525197Y271555D02*
X531299D01*
X519071Y271532D02*
X519095Y271555D01*
X514295Y271532D02*
X519071D01*
X519143Y263632D02*
X519193Y263681D01*
X514124Y263632D02*
X519143D01*
X552658Y282480D02*
Y284055D01*
X549409Y279232D02*
X552658Y282480D01*
X540453Y279232D02*
X549409D01*
X540253Y279432D02*
X540453Y279232D01*
X514269Y279432D02*
X540253D01*
X514217Y295232D02*
X517411Y298425D01*
X520177D01*
X577067Y274114D02*
X577161Y274209D01*
Y279532D01*
X525787Y316634D02*
Y323228D01*
X521752Y312894D02*
Y323130D01*
X516634Y307776D02*
X521752Y312894D01*
X514272Y307776D02*
X516634D01*
X514217Y301619D02*
X514272Y301673D01*
X514217Y295232D02*
Y301619D01*
X521752Y323130D02*
X521850Y323228D01*
X514295Y271532D02*
X514319Y271555D01*
X525294Y247932D02*
X525295Y247933D01*
X525295Y247933D02*
X525295Y247933D01*
X514124Y255807D02*
X519193D01*
X514099Y255832D02*
X514124Y255807D01*
X571752Y309154D02*
X579429D01*
X580413Y308169D01*
Y296654D02*
Y308169D01*
X577362Y293602D02*
X580413Y296654D01*
X571949Y293602D02*
X577362D01*
X571654Y287303D02*
X571682Y287332D01*
X571752Y303051D02*
X571772Y303031D01*
X577146D01*
X520470Y293600D02*
X535700D01*
X520079Y293209D02*
X520470Y293600D01*
X547736Y284055D02*
Y290158D01*
X547736Y290158D02*
X547736Y290158D01*
X520177Y304528D02*
X530028D01*
X533661Y308161D01*
Y323248D01*
X529724Y311319D02*
Y323228D01*
X571682Y287332D02*
X576898D01*
X514343Y287231D02*
X520446D01*
X541535Y318209D02*
X544390Y321063D01*
X541535Y315748D02*
Y318209D01*
D25*
X565650Y260236D02*
D03*
X517913Y316535D02*
D03*
X527854Y290059D02*
D03*
X531299Y276083D02*
D03*
X514124Y263632D02*
D03*
X514343Y287231D02*
D03*
X514269Y279432D02*
D03*
X525787Y316634D02*
D03*
X514217Y295232D02*
D03*
X514295Y271532D02*
D03*
X577165Y247933D02*
D03*
X514076Y247932D02*
D03*
X514099Y255832D02*
D03*
X576898Y287332D02*
D03*
X577161Y279532D02*
D03*
X577146Y303031D02*
D03*
X536500Y269200D02*
D03*
X535700Y293600D02*
D03*
X557800Y315800D02*
D03*
X529724Y311319D02*
D03*
X565650Y321063D02*
D03*
M02*
