G04 Layer_Color=32896*
%FSLAX25Y25*%
%MOIN*%
G70*
G01*
G75*
%ADD29C,0.01000*%
G36*
X576536Y230031D02*
X575629D01*
X575546Y230035D01*
X575469Y230039D01*
X575400Y230046D01*
X575342Y230053D01*
X575291Y230061D01*
X575254Y230064D01*
X575244Y230068D01*
X575233Y230071D01*
X575225D01*
X575160Y230090D01*
X575102Y230112D01*
X575050Y230130D01*
X575007Y230152D01*
X574970Y230170D01*
X574945Y230184D01*
X574930Y230195D01*
X574923Y230199D01*
X574876Y230232D01*
X574836Y230272D01*
X574796Y230308D01*
X574763Y230345D01*
X574734Y230377D01*
X574712Y230403D01*
X574697Y230421D01*
X574694Y230428D01*
X574657Y230486D01*
X574621Y230548D01*
X574592Y230607D01*
X574570Y230665D01*
X574548Y230716D01*
X574534Y230756D01*
X574530Y230770D01*
X574526Y230781D01*
X574523Y230789D01*
Y230792D01*
X574501Y230880D01*
X574483Y230967D01*
X574472Y231051D01*
X574461Y231131D01*
X574457Y231200D01*
Y231229D01*
X574454Y231255D01*
Y231273D01*
Y231291D01*
Y231298D01*
Y231302D01*
X574457Y231426D01*
X574468Y231539D01*
X574486Y231640D01*
X574494Y231688D01*
X574505Y231728D01*
X574515Y231768D01*
X574523Y231801D01*
X574530Y231830D01*
X574541Y231855D01*
X574545Y231877D01*
X574552Y231891D01*
X574555Y231899D01*
Y231903D01*
X574595Y231997D01*
X574643Y232081D01*
X574694Y232154D01*
X574741Y232215D01*
X574785Y232266D01*
X574821Y232303D01*
X574836Y232314D01*
X574847Y232325D01*
X574850Y232328D01*
X574854Y232332D01*
X574912Y232379D01*
X574974Y232416D01*
X575036Y232449D01*
X575094Y232474D01*
X575145Y232492D01*
X575185Y232503D01*
X575200Y232510D01*
X575211D01*
X575218Y232514D01*
X575222D01*
X575283Y232525D01*
X575356Y232536D01*
X575429Y232543D01*
X575502Y232547D01*
X575567Y232550D01*
X576536D01*
Y230031D01*
D02*
G37*
G36*
X579076D02*
X578170D01*
X578086Y230035D01*
X578010Y230039D01*
X577941Y230046D01*
X577882Y230053D01*
X577832Y230061D01*
X577795Y230064D01*
X577784Y230068D01*
X577773Y230071D01*
X577766D01*
X577701Y230090D01*
X577642Y230112D01*
X577591Y230130D01*
X577548Y230152D01*
X577511Y230170D01*
X577486Y230184D01*
X577471Y230195D01*
X577464Y230199D01*
X577417Y230232D01*
X577377Y230272D01*
X577337Y230308D01*
X577304Y230345D01*
X577275Y230377D01*
X577253Y230403D01*
X577238Y230421D01*
X577235Y230428D01*
X577198Y230486D01*
X577162Y230548D01*
X577133Y230607D01*
X577111Y230665D01*
X577089Y230716D01*
X577074Y230756D01*
X577071Y230770D01*
X577067Y230781D01*
X577064Y230789D01*
Y230792D01*
X577042Y230880D01*
X577023Y230967D01*
X577012Y231051D01*
X577002Y231131D01*
X576998Y231200D01*
Y231229D01*
X576994Y231255D01*
Y231273D01*
Y231291D01*
Y231298D01*
Y231302D01*
X576998Y231426D01*
X577009Y231539D01*
X577027Y231640D01*
X577034Y231688D01*
X577045Y231728D01*
X577056Y231768D01*
X577064Y231801D01*
X577071Y231830D01*
X577082Y231855D01*
X577085Y231877D01*
X577093Y231891D01*
X577096Y231899D01*
Y231903D01*
X577136Y231997D01*
X577184Y232081D01*
X577235Y232154D01*
X577282Y232215D01*
X577325Y232266D01*
X577362Y232303D01*
X577377Y232314D01*
X577387Y232325D01*
X577391Y232328D01*
X577395Y232332D01*
X577453Y232379D01*
X577515Y232416D01*
X577577Y232449D01*
X577635Y232474D01*
X577686Y232492D01*
X577726Y232503D01*
X577740Y232510D01*
X577751D01*
X577759Y232514D01*
X577762D01*
X577824Y232525D01*
X577897Y232536D01*
X577970Y232543D01*
X578043Y232547D01*
X578108Y232550D01*
X579076D01*
Y230031D01*
D02*
G37*
G36*
X573362Y232590D02*
X573423Y232587D01*
X573533Y232565D01*
X573584Y232550D01*
X573627Y232536D01*
X573671Y232518D01*
X573711Y232499D01*
X573744Y232481D01*
X573773Y232463D01*
X573798Y232449D01*
X573820Y232434D01*
X573838Y232423D01*
X573849Y232412D01*
X573857Y232408D01*
X573860Y232405D01*
X573897Y232368D01*
X573933Y232328D01*
X573988Y232241D01*
X574031Y232150D01*
X574064Y232066D01*
X574079Y232023D01*
X574086Y231986D01*
X574097Y231953D01*
X574100Y231924D01*
X574108Y231899D01*
Y231881D01*
X574111Y231870D01*
Y231866D01*
X573795Y231826D01*
X573776Y231917D01*
X573751Y231997D01*
X573722Y232063D01*
X573693Y232117D01*
X573667Y232157D01*
X573645Y232190D01*
X573631Y232205D01*
X573624Y232212D01*
X573569Y232256D01*
X573515Y232285D01*
X573460Y232307D01*
X573409Y232325D01*
X573362Y232332D01*
X573325Y232336D01*
X573311Y232339D01*
X573292D01*
X573220Y232332D01*
X573150Y232317D01*
X573092Y232296D01*
X573041Y232270D01*
X573001Y232245D01*
X572972Y232223D01*
X572954Y232208D01*
X572947Y232201D01*
X572899Y232146D01*
X572863Y232092D01*
X572837Y232041D01*
X572823Y231990D01*
X572812Y231950D01*
X572808Y231913D01*
X572805Y231891D01*
Y231888D01*
Y231884D01*
X572808Y231848D01*
X572812Y231811D01*
X572819Y231782D01*
X572830Y231753D01*
X572841Y231731D01*
X572848Y231713D01*
X572852Y231702D01*
X572856Y231699D01*
X572878Y231666D01*
X572910Y231629D01*
X572943Y231589D01*
X572979Y231553D01*
X573012Y231524D01*
X573041Y231495D01*
X573060Y231480D01*
X573063Y231473D01*
X573067D01*
X573121Y231422D01*
X573169Y231378D01*
X573209Y231342D01*
X573238Y231313D01*
X573260Y231287D01*
X573278Y231273D01*
X573285Y231262D01*
X573289Y231258D01*
X573318Y231222D01*
X573343Y231185D01*
X573365Y231149D01*
X573383Y231120D01*
X573394Y231094D01*
X573405Y231076D01*
X573409Y231062D01*
X573413Y231058D01*
X573431Y231007D01*
X573442Y230952D01*
X573453Y230902D01*
X573456Y230854D01*
X573460Y230810D01*
X573463Y230774D01*
Y230752D01*
Y230749D01*
Y230745D01*
Y230716D01*
X573460Y230687D01*
Y230665D01*
Y230658D01*
Y230654D01*
X573161D01*
Y230716D01*
X573158Y230770D01*
X573154Y230818D01*
X573150Y230854D01*
X573147Y230880D01*
X573143Y230902D01*
X573139Y230912D01*
Y230916D01*
X573118Y230974D01*
X573107Y231000D01*
X573096Y231022D01*
X573085Y231036D01*
X573078Y231051D01*
X573070Y231058D01*
Y231062D01*
X573048Y231091D01*
X573019Y231120D01*
X572987Y231153D01*
X572954Y231185D01*
X572921Y231214D01*
X572896Y231240D01*
X572878Y231255D01*
X572870Y231262D01*
X572794Y231331D01*
X572728Y231397D01*
X572674Y231455D01*
X572634Y231502D01*
X572605Y231542D01*
X572583Y231571D01*
X572572Y231589D01*
X572568Y231597D01*
X572543Y231651D01*
X572521Y231706D01*
X572506Y231757D01*
X572499Y231804D01*
X572492Y231844D01*
X572488Y231873D01*
Y231895D01*
Y231903D01*
X572492Y231957D01*
X572499Y232004D01*
X572510Y232055D01*
X572521Y232099D01*
X572557Y232183D01*
X572597Y232256D01*
X572619Y232285D01*
X572641Y232310D01*
X572659Y232336D01*
X572674Y232354D01*
X572688Y232368D01*
X572699Y232383D01*
X572706Y232387D01*
X572710Y232390D01*
X572754Y232427D01*
X572797Y232459D01*
X572845Y232485D01*
X572896Y232507D01*
X572994Y232543D01*
X573085Y232569D01*
X573129Y232576D01*
X573172Y232583D01*
X573205Y232587D01*
X573238Y232590D01*
X573263Y232594D01*
X573300D01*
X573362Y232590D01*
D02*
G37*
G36*
X573515Y230031D02*
X573161D01*
Y230385D01*
X573515D01*
Y230031D01*
D02*
G37*
%LPC*%
G36*
X576201Y232252D02*
X575618D01*
X575571Y232248D01*
X575524D01*
X575480Y232245D01*
X575407Y232234D01*
X575349Y232226D01*
X575302Y232215D01*
X575269Y232205D01*
X575251Y232201D01*
X575244Y232197D01*
X575178Y232165D01*
X575116Y232124D01*
X575062Y232077D01*
X575014Y232030D01*
X574978Y231986D01*
X574949Y231950D01*
X574941Y231935D01*
X574934Y231924D01*
X574927Y231917D01*
Y231913D01*
X574905Y231873D01*
X574883Y231826D01*
X574850Y231731D01*
X574828Y231629D01*
X574810Y231531D01*
X574807Y231487D01*
X574803Y231444D01*
X574799Y231407D01*
Y231375D01*
X574796Y231346D01*
Y231327D01*
Y231313D01*
Y231309D01*
X574799Y231207D01*
X574807Y231113D01*
X574818Y231029D01*
X574828Y230956D01*
X574836Y230927D01*
X574843Y230902D01*
X574850Y230876D01*
X574854Y230858D01*
X574858Y230843D01*
X574861Y230832D01*
X574865Y230825D01*
Y230821D01*
X574890Y230752D01*
X574920Y230690D01*
X574952Y230636D01*
X574981Y230588D01*
X575007Y230552D01*
X575029Y230526D01*
X575043Y230512D01*
X575047Y230505D01*
X575083Y230476D01*
X575120Y230450D01*
X575156Y230428D01*
X575192Y230406D01*
X575225Y230392D01*
X575251Y230381D01*
X575269Y230377D01*
X575276Y230374D01*
X575331Y230359D01*
X575396Y230348D01*
X575462Y230341D01*
X575524Y230337D01*
X575578Y230334D01*
X575604Y230330D01*
X576201D01*
Y232252D01*
D02*
G37*
G36*
X578742D02*
X578159D01*
X578112Y232248D01*
X578064D01*
X578021Y232245D01*
X577948Y232234D01*
X577890Y232226D01*
X577842Y232215D01*
X577810Y232205D01*
X577792Y232201D01*
X577784Y232197D01*
X577719Y232165D01*
X577657Y232124D01*
X577602Y232077D01*
X577555Y232030D01*
X577519Y231986D01*
X577489Y231950D01*
X577482Y231935D01*
X577475Y231924D01*
X577467Y231917D01*
Y231913D01*
X577446Y231873D01*
X577424Y231826D01*
X577391Y231731D01*
X577369Y231629D01*
X577351Y231531D01*
X577347Y231487D01*
X577344Y231444D01*
X577340Y231407D01*
Y231375D01*
X577337Y231346D01*
Y231327D01*
Y231313D01*
Y231309D01*
X577340Y231207D01*
X577347Y231113D01*
X577358Y231029D01*
X577369Y230956D01*
X577377Y230927D01*
X577384Y230902D01*
X577391Y230876D01*
X577395Y230858D01*
X577398Y230843D01*
X577402Y230832D01*
X577406Y230825D01*
Y230821D01*
X577431Y230752D01*
X577460Y230690D01*
X577493Y230636D01*
X577522Y230588D01*
X577548Y230552D01*
X577569Y230526D01*
X577584Y230512D01*
X577588Y230505D01*
X577624Y230476D01*
X577660Y230450D01*
X577697Y230428D01*
X577733Y230406D01*
X577766Y230392D01*
X577792Y230381D01*
X577810Y230377D01*
X577817Y230374D01*
X577872Y230359D01*
X577937Y230348D01*
X578003Y230341D01*
X578064Y230337D01*
X578119Y230334D01*
X578145Y230330D01*
X578742D01*
Y232252D01*
D02*
G37*
%LPD*%
D29*
X577676Y306931D02*
Y336931D01*
Y241431D02*
Y243932D01*
X569676Y241431D02*
X577676D01*
X513676D02*
X521676D01*
X513676D02*
Y244431D01*
Y306931D02*
Y336931D01*
X577676D01*
X581001Y346383D02*
Y340385D01*
X578002D01*
X577002Y341385D01*
Y345383D01*
X578002Y346383D01*
X581001D01*
X575003D02*
Y340385D01*
X572004D01*
X571004Y341385D01*
Y345383D01*
X572004Y346383D01*
X575003D01*
X569005Y345383D02*
X568005Y346383D01*
X566006D01*
X565006Y345383D01*
Y344384D01*
X567005Y342384D01*
Y341385D02*
Y340385D01*
M02*
