G04 Layer_Color=16711935*
%FSLAX25Y25*%
%MOIN*%
G70*
G01*
G75*
%ADD46C,0.04737*%
%ADD47R,0.11036X0.05524*%
%ADD48R,0.06300X0.10800*%
D46*
X565650Y260236D02*
D03*
X517913Y316535D02*
D03*
X527854Y290059D02*
D03*
X531299Y276083D02*
D03*
X514124Y263632D02*
D03*
X514343Y287231D02*
D03*
X514269Y279432D02*
D03*
X525787Y316634D02*
D03*
X514217Y295232D02*
D03*
X514295Y271532D02*
D03*
X577165Y247933D02*
D03*
X514076Y247932D02*
D03*
X514099Y255832D02*
D03*
X576898Y287332D02*
D03*
X577161Y279532D02*
D03*
X577146Y303031D02*
D03*
X536500Y269200D02*
D03*
X535700Y293600D02*
D03*
X557800Y315800D02*
D03*
X529724Y311319D02*
D03*
X565650Y321063D02*
D03*
D47*
X576476Y255931D02*
D03*
X514976Y247932D02*
D03*
X576476Y303031D02*
D03*
Y295232D02*
D03*
Y287332D02*
D03*
Y279532D02*
D03*
Y271532D02*
D03*
Y263732D02*
D03*
Y248031D02*
D03*
X514976Y255832D02*
D03*
Y263632D02*
D03*
X515076Y271532D02*
D03*
Y279432D02*
D03*
Y287231D02*
D03*
Y295232D02*
D03*
Y303031D02*
D03*
D48*
X565476Y239831D02*
D03*
X557676D02*
D03*
X549876D02*
D03*
X541876D02*
D03*
X534076D02*
D03*
X526076D02*
D03*
M02*
