G04 Layer_Color=65535*
%FSLAX25Y25*%
%MOIN*%
G70*
G01*
G75*
%ADD23C,0.01000*%
%ADD27C,0.00787*%
%ADD28C,0.01575*%
%ADD29C,0.00394*%
D23*
X364036Y303248D02*
G03*
X364036Y303248I-355J0D01*
G01*
D27*
X356988Y288386D02*
X357776D01*
X356988Y292323D02*
X357776D01*
X348031Y292913D02*
Y293701D01*
X344094Y292913D02*
Y293701D01*
X377165Y333366D02*
X377953D01*
X377165Y329429D02*
X377953D01*
X371260Y298130D02*
X379134D01*
X371260Y294193D02*
Y298130D01*
X379134Y294193D02*
Y298130D01*
X371260Y294193D02*
X379134D01*
X364862Y292717D02*
Y293504D01*
X368799Y292717D02*
Y293504D01*
X371260Y291929D02*
X379134D01*
X371260Y287992D02*
Y291929D01*
X379134Y287992D02*
Y291929D01*
X371260Y287992D02*
X379134D01*
X355610Y328150D02*
Y328937D01*
X351673Y328150D02*
Y328937D01*
X344685Y327953D02*
X345472D01*
X344685Y331890D02*
X345472D01*
X373819Y340945D02*
Y341732D01*
X377756Y340945D02*
Y341732D01*
X395276Y370079D02*
Y380217D01*
X370177Y370079D02*
Y380217D01*
X395276D01*
X382480Y370079D02*
X389173D01*
X376870D02*
X377362D01*
X394488D02*
X395276D01*
X370177D02*
X371260D01*
X338287Y377756D02*
X356398D01*
X357972Y366831D02*
X361122D01*
Y369882D01*
X333563Y366831D02*
X336713D01*
X333563D02*
Y369882D01*
X384154Y323130D02*
X384941D01*
X384154Y327067D02*
X384941D01*
X369390Y328051D02*
Y328839D01*
X365453Y328051D02*
Y328839D01*
X361614Y321752D02*
Y322539D01*
X357677Y321752D02*
Y322539D01*
X354823Y309055D02*
Y309842D01*
X358760Y309055D02*
Y309842D01*
X346457Y304331D02*
X347244D01*
X346457Y308268D02*
X347244D01*
X341339Y343110D02*
Y343898D01*
X337402Y343110D02*
Y343898D01*
X344390Y343012D02*
Y343799D01*
X348327Y343012D02*
Y343799D01*
X351378Y343012D02*
Y343799D01*
X355315Y343012D02*
Y343799D01*
D28*
X381004Y352067D02*
X388878D01*
X381004Y336319D02*
Y352067D01*
Y336319D02*
X388878D01*
Y352067D01*
D29*
X364075Y304921D02*
X365158D01*
X364075D02*
Y305906D01*
Y316732D02*
X365059D01*
X364075Y315748D02*
Y316732D01*
X382874Y304921D02*
X383760D01*
Y305906D01*
Y315748D02*
Y316732D01*
X382874D02*
X383760D01*
X384875Y367683D02*
X384547Y368011D01*
X383891D01*
X383563Y367683D01*
Y367355D01*
X383891Y367027D01*
X384547D01*
X384875Y366699D01*
Y366371D01*
X384547Y366043D01*
X383891D01*
X383563Y366371D01*
X385531Y366043D02*
Y367355D01*
X386187Y368011D01*
X386843Y367355D01*
Y366043D01*
Y367027D01*
X385531D01*
X387499Y366043D02*
X388155D01*
X387827D01*
Y368011D01*
X387499Y367683D01*
X332972Y361121D02*
X334284Y359154D01*
Y361121D02*
X332972Y359154D01*
X334940D02*
Y361121D01*
X335924D01*
X336252Y360793D01*
Y360138D01*
X335924Y359809D01*
X334940D01*
X336908Y359154D02*
X337564D01*
X337236D01*
Y361121D01*
X336908Y360793D01*
X388484Y356200D02*
X389796Y354232D01*
Y356200D02*
X388484Y354232D01*
X391436D02*
Y356200D01*
X390452Y355216D01*
X391764D01*
X361996Y367595D02*
X363308Y365627D01*
Y367595D02*
X361996Y365627D01*
X363964Y367267D02*
X364292Y367595D01*
X364948D01*
X365276Y367267D01*
Y366939D01*
X364948Y366611D01*
X364620D01*
X364948D01*
X365276Y366283D01*
Y365955D01*
X364948Y365627D01*
X364292D01*
X363964Y365955D01*
X394587Y366141D02*
X395899Y364173D01*
Y366141D02*
X394587Y364173D01*
X397866D02*
X396554D01*
X397866Y365485D01*
Y365813D01*
X397538Y366141D01*
X396883D01*
X396554Y365813D01*
X370850Y367595D02*
X372162Y365627D01*
Y367595D02*
X370850Y365627D01*
X372818D02*
X373474D01*
X373146D01*
Y367595D01*
X372818Y367267D01*
X382119Y355774D02*
X381791Y356102D01*
X381135D01*
X380807Y355774D01*
Y355446D01*
X381135Y355118D01*
X381791D01*
X382119Y354790D01*
Y354462D01*
X381791Y354134D01*
X381135D01*
X380807Y354462D01*
X382775Y356102D02*
Y354134D01*
X383759D01*
X384087Y354462D01*
Y354790D01*
X383759Y355118D01*
X382775D01*
X383759D01*
X384087Y355446D01*
Y355774D01*
X383759Y356102D01*
X382775D01*
X384743Y354134D02*
X385399D01*
X385071D01*
Y356102D01*
X384743Y355774D01*
X335827Y349311D02*
Y351279D01*
X336811D01*
X337139Y350951D01*
Y350295D01*
X336811Y349967D01*
X335827D01*
X336483D02*
X337139Y349311D01*
X337795D02*
X338451D01*
X338123D01*
Y351279D01*
X337795Y350951D01*
X339435D02*
X339762Y351279D01*
X340418D01*
X340746Y350951D01*
Y350623D01*
X340418Y350295D01*
X340090D01*
X340418D01*
X340746Y349967D01*
Y349639D01*
X340418Y349311D01*
X339762D01*
X339435Y349639D01*
X343504Y349213D02*
Y351181D01*
X344488D01*
X344816Y350852D01*
Y350197D01*
X344488Y349869D01*
X343504D01*
X344160D02*
X344816Y349213D01*
X345472D02*
X346128D01*
X345800D01*
Y351181D01*
X345472Y350852D01*
X348424Y349213D02*
X347112D01*
X348424Y350524D01*
Y350852D01*
X348096Y351181D01*
X347440D01*
X347112Y350852D01*
X351278Y336324D02*
Y338292D01*
X352262D01*
X352590Y337964D01*
Y337308D01*
X352262Y336980D01*
X351278D01*
X351934D02*
X352590Y336324D01*
X353246D02*
X353902D01*
X353574D01*
Y338292D01*
X353246Y337964D01*
X354886Y336324D02*
X355542D01*
X355214D01*
Y338292D01*
X354886Y337964D01*
X349606Y298721D02*
X351574D01*
Y297737D01*
X351246Y297409D01*
X350590D01*
X350262Y297737D01*
Y298721D01*
Y298064D02*
X349606Y297409D01*
Y296753D02*
Y296097D01*
Y296425D01*
X351574D01*
X351246Y296753D01*
Y295113D02*
X351574Y294785D01*
Y294129D01*
X351246Y293801D01*
X349934D01*
X349606Y294129D01*
Y294785D01*
X349934Y295113D01*
X351246D01*
X340089Y335039D02*
Y337007D01*
X341073D01*
X341401Y336679D01*
Y336023D01*
X341073Y335695D01*
X340089D01*
X340745D02*
X341401Y335039D01*
X342057Y335367D02*
X342385Y335039D01*
X343041D01*
X343369Y335367D01*
Y336679D01*
X343041Y337007D01*
X342385D01*
X342057Y336679D01*
Y336351D01*
X342385Y336023D01*
X343369D01*
X357972Y327559D02*
Y329527D01*
X358956D01*
X359284Y329199D01*
Y328543D01*
X358956Y328215D01*
X357972D01*
X358628D02*
X359284Y327559D01*
X359940Y329199D02*
X360268Y329527D01*
X360924D01*
X361252Y329199D01*
Y328871D01*
X360924Y328543D01*
X361252Y328215D01*
Y327887D01*
X360924Y327559D01*
X360268D01*
X359940Y327887D01*
Y328215D01*
X360268Y328543D01*
X359940Y328871D01*
Y329199D01*
X360268Y328543D02*
X360924D01*
X342126Y309646D02*
Y311613D01*
X343110D01*
X343438Y311286D01*
Y310630D01*
X343110Y310302D01*
X342126D01*
X342782D02*
X343438Y309646D01*
X344094Y311613D02*
X345406D01*
Y311286D01*
X344094Y309974D01*
Y309646D01*
X360531Y311811D02*
X362499D01*
Y310827D01*
X362171Y310499D01*
X361515D01*
X361187Y310827D01*
Y311811D01*
Y311155D02*
X360531Y310499D01*
X362499Y308531D02*
X362171Y309187D01*
X361515Y309843D01*
X360859D01*
X360531Y309515D01*
Y308859D01*
X360859Y308531D01*
X361187D01*
X361515Y308859D01*
Y309843D01*
X380807Y291929D02*
X382775D01*
Y290945D01*
X382447Y290617D01*
X381791D01*
X381463Y290945D01*
Y291929D01*
Y291273D02*
X380807Y290617D01*
X382775Y288649D02*
Y289961D01*
X381791D01*
X382119Y289305D01*
Y288977D01*
X381791Y288649D01*
X381135D01*
X380807Y288977D01*
Y289633D01*
X381135Y289961D01*
X380906Y297933D02*
X382873D01*
Y296949D01*
X382545Y296621D01*
X381889D01*
X381561Y296949D01*
Y297933D01*
Y297277D02*
X380906Y296621D01*
Y294981D02*
X382873D01*
X381889Y295965D01*
Y294653D01*
X390650Y326870D02*
X392618D01*
Y325886D01*
X392289Y325558D01*
X391634D01*
X391306Y325886D01*
Y326870D01*
Y326214D02*
X390650Y325558D01*
X392289Y324902D02*
X392618Y324574D01*
Y323918D01*
X392289Y323590D01*
X391962D01*
X391634Y323918D01*
Y324246D01*
Y323918D01*
X391306Y323590D01*
X390978D01*
X390650Y323918D01*
Y324574D01*
X390978Y324902D01*
X361614Y332972D02*
Y334940D01*
X362598D01*
X362926Y334612D01*
Y333956D01*
X362598Y333628D01*
X361614D01*
X362270D02*
X362926Y332972D01*
X364894D02*
X363582D01*
X364894Y334284D01*
Y334612D01*
X364566Y334940D01*
X363910D01*
X363582Y334612D01*
X383563Y333071D02*
X385531D01*
Y332087D01*
X385203Y331759D01*
X384547D01*
X384219Y332087D01*
Y333071D01*
Y332415D02*
X383563Y331759D01*
Y331103D02*
Y330447D01*
Y330775D01*
X385531D01*
X385203Y331103D01*
X386515Y314665D02*
X384547D01*
Y313681D01*
X384875Y313353D01*
X386187D01*
X386515Y313681D01*
Y314665D01*
Y312698D02*
X384547D01*
Y311714D01*
X384875Y311386D01*
X386187D01*
X386515Y311714D01*
Y312698D01*
X384547Y309418D02*
Y310730D01*
X385859Y309418D01*
X386187D01*
X386515Y309746D01*
Y310402D01*
X386187Y310730D01*
X359881Y355685D02*
Y353718D01*
X360865D01*
X361193Y354046D01*
Y355358D01*
X360865Y355685D01*
X359881D01*
X361849Y353718D02*
Y355030D01*
X362505Y355685D01*
X363161Y355030D01*
Y353718D01*
Y354701D01*
X361849D01*
X363817Y353718D02*
X364473D01*
X364145D01*
Y355685D01*
X363817Y355358D01*
X366272Y301049D02*
X365945Y301377D01*
X365289D01*
X364961Y301049D01*
Y299737D01*
X365289Y299410D01*
X365945D01*
X366272Y299737D01*
X367912Y299410D02*
Y301377D01*
X366929Y300393D01*
X368240D01*
X356922Y295734D02*
X356594Y296062D01*
X355938D01*
X355610Y295734D01*
Y294423D01*
X355938Y294094D01*
X356594D01*
X356922Y294423D01*
X357578Y295734D02*
X357906Y296062D01*
X358562D01*
X358890Y295734D01*
Y295406D01*
X358562Y295078D01*
X358234D01*
X358562D01*
X358890Y294750D01*
Y294423D01*
X358562Y294094D01*
X357906D01*
X357578Y294423D01*
X374379Y351179D02*
X374051Y351507D01*
X373395D01*
X373067Y351179D01*
Y349867D01*
X373395Y349539D01*
X374051D01*
X374379Y349867D01*
X376347Y349539D02*
X375035D01*
X376347Y350851D01*
Y351179D01*
X376019Y351507D01*
X375363D01*
X375035Y351179D01*
X352887Y351345D02*
X352559Y351673D01*
X351903D01*
X351575Y351345D01*
Y350033D01*
X351903Y349705D01*
X352559D01*
X352887Y350033D01*
X353543Y349705D02*
X354199D01*
X353871D01*
Y351673D01*
X353543Y351345D01*
M02*
