G04 Layer_Color=32768*
%FSLAX25Y25*%
%MOIN*%
G70*
G01*
G75*
%ADD27C,0.00787*%
%ADD29C,0.00394*%
D27*
X351969Y287598D02*
X362795D01*
X351969Y293110D02*
X362795D01*
Y287598D02*
Y293110D01*
X351969Y287598D02*
Y293110D01*
X364075Y287697D02*
Y298524D01*
X369587Y287697D02*
Y298524D01*
X364075Y287697D02*
X369587D01*
X364075Y298524D02*
X369587D01*
X373031Y335925D02*
Y346752D01*
X378543Y335925D02*
Y346752D01*
X373031Y335925D02*
X378543D01*
X373031Y346752D02*
X378543D01*
X381004Y375098D02*
X384941D01*
X382972Y373130D02*
Y377067D01*
X364370Y381004D02*
X401083D01*
X364370Y364567D02*
Y381004D01*
Y364567D02*
X401083D01*
Y381004D01*
X350590Y337992D02*
Y348819D01*
X356102Y337992D02*
Y348819D01*
X350590Y337992D02*
X356102D01*
X350590Y348819D02*
X356102D01*
D29*
X357382Y288878D02*
Y291831D01*
X355906Y290354D02*
X358858D01*
X344587Y293307D02*
X347539D01*
X346063Y291831D02*
Y294783D01*
X348622Y288090D02*
Y298524D01*
X343504Y288090D02*
Y298524D01*
X348622D01*
X343504Y288090D02*
X348622D01*
X377559Y329921D02*
Y332874D01*
X376083Y331398D02*
X379035D01*
X372342Y333957D02*
X382776D01*
X372342Y328839D02*
X382776D01*
X372342D02*
Y333957D01*
X382776Y328839D02*
Y333957D01*
X375197Y295079D02*
Y297244D01*
X374114Y296161D02*
X376279D01*
X371457Y294390D02*
X378937D01*
X371457Y297933D02*
X378937D01*
Y294390D02*
Y297933D01*
X371457Y294390D02*
Y297933D01*
X365354Y293110D02*
X368307D01*
X366831Y291634D02*
Y294587D01*
X375197Y288878D02*
Y291043D01*
X374114Y289961D02*
X376279D01*
X371457Y288189D02*
X378937D01*
X371457Y291732D02*
X378937D01*
Y288189D02*
Y291732D01*
X371457Y288189D02*
Y291732D01*
X352165Y328543D02*
X355118D01*
X353642Y327067D02*
Y330020D01*
X356201Y323327D02*
Y333760D01*
X351083Y323327D02*
Y333760D01*
X356201D01*
X351083Y323327D02*
X356201D01*
X345079Y328445D02*
Y331398D01*
X343602Y329921D02*
X346555D01*
X339862Y327362D02*
X350295D01*
X339862Y332480D02*
X350295D01*
Y327362D02*
Y332480D01*
X339862Y327362D02*
Y332480D01*
X374311Y341339D02*
X377264D01*
X375787Y339862D02*
Y342815D01*
X364750Y370774D02*
Y372774D01*
X363750Y371774D02*
X365750D01*
X331201Y361221D02*
Y379331D01*
Y361221D02*
X363878D01*
Y379331D01*
X331201D02*
X363878D01*
X384547Y323622D02*
Y326575D01*
X383071Y325098D02*
X386024D01*
X379331Y322539D02*
X389764D01*
X379331Y327658D02*
X389764D01*
Y322539D02*
Y327658D01*
X379331Y322539D02*
Y327658D01*
X365945Y328445D02*
X368898D01*
X367421Y326969D02*
Y329921D01*
X369980Y323228D02*
Y333661D01*
X364862Y323228D02*
Y333661D01*
X369980D01*
X364862Y323228D02*
X369980D01*
X358169Y322146D02*
X361122D01*
X359646Y320669D02*
Y323622D01*
X362205Y316929D02*
Y327362D01*
X357087Y316929D02*
Y327362D01*
X362205D01*
X357087Y316929D02*
X362205D01*
X355315Y309449D02*
X358268D01*
X356791Y307972D02*
Y310925D01*
X354232Y304232D02*
Y314665D01*
X359350Y304232D02*
Y314665D01*
X354232Y304232D02*
X359350D01*
X354232Y314665D02*
X359350D01*
X346850Y304823D02*
Y307776D01*
X345374Y306299D02*
X348327D01*
X341634Y303740D02*
X352067D01*
X341634Y308858D02*
X352067D01*
Y303740D02*
Y308858D01*
X341634Y303740D02*
Y308858D01*
X337894Y343504D02*
X340846D01*
X339370Y342028D02*
Y344980D01*
X341929Y338287D02*
Y348721D01*
X336811Y338287D02*
Y348721D01*
X341929D01*
X336811Y338287D02*
X341929D01*
X344882Y343406D02*
X347835D01*
X346358Y341929D02*
Y344882D01*
X343799Y338189D02*
Y348622D01*
X348917Y338189D02*
Y348622D01*
X343799Y338189D02*
X348917D01*
X343799Y348622D02*
X348917D01*
X351870Y343406D02*
X354823D01*
X353346Y341929D02*
Y344882D01*
M02*
